{
	"asset":{
		"generator":"Khronos glTF Blender I/O v4.0.44",
		"version":"2.0"
	},
	"scene":0,
	"scenes":[
		{
			"name":"Scene",
			"nodes":[
				2
			]
		}
	],
	"nodes":[
		{
			"mesh":0,
			"name":"Cone",
			"scale":[
				0.5603415966033936,
				0.5603415966033936,
				0.5603415369987488
			],
			"translation":[
				0,
				1.9269894361495972,
				0
			]
		},
		{
			"mesh":1,
			"name":"Torus",
			"rotation":[
				0.0825527161359787,
				0.044942598789930344,
				0.03646235913038254,
				0.9949048757553101
			],
			"translation":[
				0.053754474967718124,
				-1.562883973121643,
				-0.18581640720367432
			]
		},
		{
			"children":[
				0,
				1
			],
			"mesh":2,
			"name":"Cube",
			"rotation":[
				-0.0825527161359787,
				-0.044942598789930344,
				-0.03646235913038254,
				0.9949048757553101
			]
		}
	],
	"animations":[
		{
			"channels":[
				{
					"sampler":0,
					"target":{
						"node":2,
						"path":"translation"
					}
				},
				{
					"sampler":1,
					"target":{
						"node":2,
						"path":"rotation"
					}
				},
				{
					"sampler":2,
					"target":{
						"node":2,
						"path":"scale"
					}
				}
			],
			"name":"CubeAction",
			"samplers":[
				{
					"input":12,
					"interpolation":"STEP",
					"output":13
				},
				{
					"input":14,
					"interpolation":"LINEAR",
					"output":15
				},
				{
					"input":14,
					"interpolation":"LINEAR",
					"output":16
				}
			]
		},
		{
			"channels":[
				{
					"sampler":0,
					"target":{
						"node":0,
						"path":"translation"
					}
				},
				{
					"sampler":1,
					"target":{
						"node":0,
						"path":"rotation"
					}
				},
				{
					"sampler":2,
					"target":{
						"node":0,
						"path":"scale"
					}
				}
			],
			"name":"ConeAction",
			"samplers":[
				{
					"input":17,
					"interpolation":"LINEAR",
					"output":18
				},
				{
					"input":17,
					"interpolation":"LINEAR",
					"output":19
				},
				{
					"input":20,
					"interpolation":"LINEAR",
					"output":21
				}
			]
		},
		{
			"channels":[
				{
					"sampler":0,
					"target":{
						"node":1,
						"path":"translation"
					}
				},
				{
					"sampler":1,
					"target":{
						"node":1,
						"path":"rotation"
					}
				},
				{
					"sampler":2,
					"target":{
						"node":1,
						"path":"scale"
					}
				}
			],
			"name":"TorusAction",
			"samplers":[
				{
					"input":22,
					"interpolation":"LINEAR",
					"output":23
				},
				{
					"input":24,
					"interpolation":"STEP",
					"output":25
				},
				{
					"input":24,
					"interpolation":"STEP",
					"output":26
				}
			]
		}
	],
	"materials":[
		{
			"doubleSided":true,
			"name":"Material.002",
			"pbrMetallicRoughness":{
				"baseColorFactor":[
					0.1975260227918625,
					0.35434699058532715,
					0.8002121448516846,
					1
				],
				"metallicFactor":0,
				"roughnessFactor":0.5
			}
		},
		{
			"doubleSided":true,
			"name":"Material.003",
			"pbrMetallicRoughness":{
				"baseColorFactor":[
					0.8001724481582642,
					0.34399548172950745,
					0.010100266896188259,
					1
				],
				"metallicFactor":0,
				"roughnessFactor":0.5
			}
		},
		{
			"doubleSided":true,
			"name":"Material.001",
			"pbrMetallicRoughness":{
				"baseColorFactor":[
					0.8001648187637329,
					0.13555806875228882,
					0.5603743195533752,
					1
				],
				"metallicFactor":0,
				"roughnessFactor":0.5
			}
		}
	],
	"meshes":[
		{
			"name":"Cone",
			"primitives":[
				{
					"attributes":{
						"POSITION":0,
						"NORMAL":1,
						"TEXCOORD_0":2
					},
					"indices":3,
					"material":0
				}
			]
		},
		{
			"name":"Torus",
			"primitives":[
				{
					"attributes":{
						"POSITION":4,
						"NORMAL":5,
						"TEXCOORD_0":6
					},
					"indices":7,
					"material":1
				}
			]
		},
		{
			"name":"Cube.001",
			"primitives":[
				{
					"attributes":{
						"POSITION":8,
						"NORMAL":9,
						"TEXCOORD_0":10
					},
					"indices":11,
					"material":2
				}
			]
		}
	],
	"accessors":[
		{
			"bufferView":0,
			"componentType":5126,
			"count":33,
			"max":[
				1,
				1,
				1
			],
			"min":[
				-1,
				-1,
				-1
			],
			"type":"VEC3"
		},
		{
			"bufferView":1,
			"componentType":5126,
			"count":33,
			"type":"VEC3"
		},
		{
			"bufferView":2,
			"componentType":5126,
			"count":33,
			"type":"VEC2"
		},
		{
			"bufferView":3,
			"componentType":5123,
			"count":90,
			"type":"SCALAR"
		},
		{
			"bufferView":4,
			"componentType":5126,
			"count":64,
			"max":[
				1.25,
				0.25,
				1.25
			],
			"min":[
				-1.25,
				-0.25,
				-1.25
			],
			"type":"VEC3"
		},
		{
			"bufferView":5,
			"componentType":5126,
			"count":64,
			"type":"VEC3"
		},
		{
			"bufferView":6,
			"componentType":5126,
			"count":64,
			"type":"VEC2"
		},
		{
			"bufferView":7,
			"componentType":5123,
			"count":96,
			"type":"SCALAR"
		},
		{
			"bufferView":8,
			"componentType":5126,
			"count":24,
			"max":[
				1,
				1,
				1
			],
			"min":[
				-1,
				-1,
				-1
			],
			"type":"VEC3"
		},
		{
			"bufferView":9,
			"componentType":5126,
			"count":24,
			"type":"VEC3"
		},
		{
			"bufferView":10,
			"componentType":5126,
			"count":24,
			"type":"VEC2"
		},
		{
			"bufferView":11,
			"componentType":5123,
			"count":36,
			"type":"SCALAR"
		},
		{
			"bufferView":12,
			"componentType":5126,
			"count":2,
			"max":[
				1.25
			],
			"min":[
				0.041666666666666664
			],
			"type":"SCALAR"
		},
		{
			"bufferView":13,
			"componentType":5126,
			"count":2,
			"type":"VEC3"
		},
		{
			"bufferView":14,
			"componentType":5126,
			"count":30,
			"max":[
				1.25
			],
			"min":[
				0.041666666666666664
			],
			"type":"SCALAR"
		},
		{
			"bufferView":15,
			"componentType":5126,
			"count":30,
			"type":"VEC4"
		},
		{
			"bufferView":16,
			"componentType":5126,
			"count":30,
			"type":"VEC3"
		},
		{
			"bufferView":17,
			"componentType":5126,
			"count":2,
			"max":[
				2
			],
			"min":[
				0.6666666666666666
			],
			"type":"SCALAR"
		},
		{
			"bufferView":18,
			"componentType":5126,
			"count":2,
			"type":"VEC3"
		},
		{
			"bufferView":19,
			"componentType":5126,
			"count":2,
			"type":"VEC4"
		},
		{
			"bufferView":20,
			"componentType":5126,
			"count":33,
			"max":[
				2
			],
			"min":[
				0.6666666666666666
			],
			"type":"SCALAR"
		},
		{
			"bufferView":21,
			"componentType":5126,
			"count":33,
			"type":"VEC3"
		},
		{
			"bufferView":22,
			"componentType":5126,
			"count":50,
			"max":[
				2.0833333333333335
			],
			"min":[
				0.041666666666666664
			],
			"type":"SCALAR"
		},
		{
			"bufferView":23,
			"componentType":5126,
			"count":50,
			"type":"VEC3"
		},
		{
			"bufferView":24,
			"componentType":5126,
			"count":2,
			"max":[
				2.0833333333333335
			],
			"min":[
				0.041666666666666664
			],
			"type":"SCALAR"
		},
		{
			"bufferView":25,
			"componentType":5126,
			"count":2,
			"type":"VEC4"
		},
		{
			"bufferView":26,
			"componentType":5126,
			"count":2,
			"type":"VEC3"
		}
	],
	"bufferViews":[
		{
			"buffer":0,
			"byteLength":396,
			"byteOffset":0,
			"target":34962
		},
		{
			"buffer":0,
			"byteLength":396,
			"byteOffset":396,
			"target":34962
		},
		{
			"buffer":0,
			"byteLength":264,
			"byteOffset":792,
			"target":34962
		},
		{
			"buffer":0,
			"byteLength":180,
			"byteOffset":1056,
			"target":34963
		},
		{
			"buffer":0,
			"byteLength":768,
			"byteOffset":1236,
			"target":34962
		},
		{
			"buffer":0,
			"byteLength":768,
			"byteOffset":2004,
			"target":34962
		},
		{
			"buffer":0,
			"byteLength":512,
			"byteOffset":2772,
			"target":34962
		},
		{
			"buffer":0,
			"byteLength":192,
			"byteOffset":3284,
			"target":34963
		},
		{
			"buffer":0,
			"byteLength":288,
			"byteOffset":3476,
			"target":34962
		},
		{
			"buffer":0,
			"byteLength":288,
			"byteOffset":3764,
			"target":34962
		},
		{
			"buffer":0,
			"byteLength":192,
			"byteOffset":4052,
			"target":34962
		},
		{
			"buffer":0,
			"byteLength":72,
			"byteOffset":4244,
			"target":34963
		},
		{
			"buffer":0,
			"byteLength":8,
			"byteOffset":4316
		},
		{
			"buffer":0,
			"byteLength":24,
			"byteOffset":4324
		},
		{
			"buffer":0,
			"byteLength":120,
			"byteOffset":4348
		},
		{
			"buffer":0,
			"byteLength":480,
			"byteOffset":4468
		},
		{
			"buffer":0,
			"byteLength":360,
			"byteOffset":4948
		},
		{
			"buffer":0,
			"byteLength":8,
			"byteOffset":5308
		},
		{
			"buffer":0,
			"byteLength":24,
			"byteOffset":5316
		},
		{
			"buffer":0,
			"byteLength":32,
			"byteOffset":5340
		},
		{
			"buffer":0,
			"byteLength":132,
			"byteOffset":5372
		},
		{
			"buffer":0,
			"byteLength":396,
			"byteOffset":5504
		},
		{
			"buffer":0,
			"byteLength":200,
			"byteOffset":5900
		},
		{
			"buffer":0,
			"byteLength":600,
			"byteOffset":6100
		},
		{
			"buffer":0,
			"byteLength":8,
			"byteOffset":6700
		},
		{
			"buffer":0,
			"byteLength":32,
			"byteOffset":6708
		},
		{
			"buffer":0,
			"byteLength":24,
			"byteOffset":6740
		}
	],
	"buffers":[
		{
			"byteLength":6764,
			"uri":"anim_cube.bin"
		}
	]
}
