{
	"asset":{
		"generator":"Khronos glTF Blender I/O v4.0.44",
		"version":"2.0"
	},
	"scene":0,
	"scenes":[
		{
			"name":"Scene",
			"nodes":[
				0
			]
		}
	],
	"nodes":[
		{
			"mesh":0,
			"name":"Suzanne"
		}
	],
	"materials":[
		{
			"doubleSided":true,
			"name":"Material.001",
			"pbrMetallicRoughness":{
				"baseColorFactor":[
					0.282661497592926,
					0.12942595779895782,
					0.04993310570716858,
					1
				],
				"metallicFactor":0,
				"roughnessFactor":0.5
			}
		},
		{
			"doubleSided":true,
			"name":"Material.002",
			"pbrMetallicRoughness":{
				"baseColorFactor":[
					0.800000011920929,
					0.800000011920929,
					0.800000011920929,
					1
				],
				"metallicFactor":0,
				"roughnessFactor":0.5
			}
		},
		{
			"doubleSided":true,
			"name":"Material.003",
			"pbrMetallicRoughness":{
				"baseColorFactor":[
					0.04644219949841499,
					0.04644219949841499,
					0.04644219949841499,
					1
				],
				"metallicFactor":0,
				"roughnessFactor":0.5
			}
		},
		{
			"doubleSided":true,
			"name":"Material.004",
			"pbrMetallicRoughness":{
				"baseColorFactor":[
					0.8001260757446289,
					0.6466313600540161,
					0.18597933650016785,
					1
				],
				"metallicFactor":0,
				"roughnessFactor":0.5
			}
		},
		{
			"doubleSided":true,
			"name":"Material.005",
			"pbrMetallicRoughness":{
				"baseColorFactor":[
					0.0005593482055701315,
					0.5355050563812256,
					0.8005045056343079,
					1
				],
				"metallicFactor":0,
				"roughnessFactor":0.5
			}
		}
	],
	"meshes":[
		{
			"name":"Suzanne",
			"primitives":[
				{
					"attributes":{
						"POSITION":0,
						"NORMAL":1,
						"TEXCOORD_0":2
					},
					"indices":3,
					"material":0
				},
				{
					"attributes":{
						"POSITION":4,
						"NORMAL":5,
						"TEXCOORD_0":6
					},
					"indices":7,
					"material":1
				},
				{
					"attributes":{
						"POSITION":8,
						"NORMAL":9,
						"TEXCOORD_0":10
					},
					"indices":11,
					"material":2
				},
				{
					"attributes":{
						"POSITION":12,
						"NORMAL":13,
						"TEXCOORD_0":14
					},
					"indices":15,
					"material":3
				},
				{
					"attributes":{
						"POSITION":16,
						"NORMAL":17,
						"TEXCOORD_0":18
					},
					"indices":19,
					"material":4
				}
			]
		}
	],
	"accessors":[
		{
			"bufferView":0,
			"componentType":5126,
			"count":478,
			"max":[
				1.3671875,
				0.984375,
				0.8515625
			],
			"min":[
				-1.3671875,
				-0.984375,
				-0.8515625
			],
			"type":"VEC3"
		},
		{
			"bufferView":1,
			"componentType":5126,
			"count":478,
			"type":"VEC3"
		},
		{
			"bufferView":2,
			"componentType":5126,
			"count":478,
			"type":"VEC2"
		},
		{
			"bufferView":3,
			"componentType":5123,
			"count":1764,
			"type":"SCALAR"
		},
		{
			"bufferView":4,
			"componentType":5126,
			"count":64,
			"max":[
				0.5625,
				0.453125,
				0.8203125
			],
			"min":[
				-0.5625,
				0.06870141625404358,
				0.671875
			],
			"type":"VEC3"
		},
		{
			"bufferView":5,
			"componentType":5126,
			"count":64,
			"type":"VEC3"
		},
		{
			"bufferView":6,
			"componentType":5126,
			"count":64,
			"type":"VEC2"
		},
		{
			"bufferView":7,
			"componentType":5123,
			"count":192,
			"type":"SCALAR"
		},
		{
			"bufferView":8,
			"componentType":5126,
			"count":162,
			"max":[
				0.640625,
				0.4765625,
				0.828125
			],
			"min":[
				-0.640625,
				-0.875,
				0.6328125
			],
			"type":"VEC3"
		},
		{
			"bufferView":9,
			"componentType":5126,
			"count":162,
			"type":"VEC3"
		},
		{
			"bufferView":10,
			"componentType":5126,
			"count":162,
			"type":"VEC2"
		},
		{
			"bufferView":11,
			"componentType":5123,
			"count":522,
			"type":"SCALAR"
		},
		{
			"bufferView":12,
			"componentType":5126,
			"count":112,
			"max":[
				1.2578125,
				0.640625,
				0.8515625
			],
			"min":[
				-1.2578125,
				-0.890625,
				-0.4921875
			],
			"type":"VEC3"
		},
		{
			"bufferView":13,
			"componentType":5126,
			"count":112,
			"type":"VEC3"
		},
		{
			"bufferView":14,
			"componentType":5126,
			"count":112,
			"type":"VEC2"
		},
		{
			"bufferView":15,
			"componentType":5123,
			"count":378,
			"type":"SCALAR"
		},
		{
			"bufferView":16,
			"componentType":5126,
			"count":18,
			"max":[
				0.4765625,
				0.375,
				0.828125
			],
			"min":[
				-0.4765625,
				0.1171875,
				0.7734375
			],
			"type":"VEC3"
		},
		{
			"bufferView":17,
			"componentType":5126,
			"count":18,
			"type":"VEC3"
		},
		{
			"bufferView":18,
			"componentType":5126,
			"count":18,
			"type":"VEC2"
		},
		{
			"bufferView":19,
			"componentType":5123,
			"count":48,
			"type":"SCALAR"
		}
	],
	"bufferViews":[
		{
			"buffer":0,
			"byteLength":5736,
			"byteOffset":0,
			"target":34962
		},
		{
			"buffer":0,
			"byteLength":5736,
			"byteOffset":5736,
			"target":34962
		},
		{
			"buffer":0,
			"byteLength":3824,
			"byteOffset":11472,
			"target":34962
		},
		{
			"buffer":0,
			"byteLength":3528,
			"byteOffset":15296,
			"target":34963
		},
		{
			"buffer":0,
			"byteLength":768,
			"byteOffset":18824,
			"target":34962
		},
		{
			"buffer":0,
			"byteLength":768,
			"byteOffset":19592,
			"target":34962
		},
		{
			"buffer":0,
			"byteLength":512,
			"byteOffset":20360,
			"target":34962
		},
		{
			"buffer":0,
			"byteLength":384,
			"byteOffset":20872,
			"target":34963
		},
		{
			"buffer":0,
			"byteLength":1944,
			"byteOffset":21256,
			"target":34962
		},
		{
			"buffer":0,
			"byteLength":1944,
			"byteOffset":23200,
			"target":34962
		},
		{
			"buffer":0,
			"byteLength":1296,
			"byteOffset":25144,
			"target":34962
		},
		{
			"buffer":0,
			"byteLength":1044,
			"byteOffset":26440,
			"target":34963
		},
		{
			"buffer":0,
			"byteLength":1344,
			"byteOffset":27484,
			"target":34962
		},
		{
			"buffer":0,
			"byteLength":1344,
			"byteOffset":28828,
			"target":34962
		},
		{
			"buffer":0,
			"byteLength":896,
			"byteOffset":30172,
			"target":34962
		},
		{
			"buffer":0,
			"byteLength":756,
			"byteOffset":31068,
			"target":34963
		},
		{
			"buffer":0,
			"byteLength":216,
			"byteOffset":31824,
			"target":34962
		},
		{
			"buffer":0,
			"byteLength":216,
			"byteOffset":32040,
			"target":34962
		},
		{
			"buffer":0,
			"byteLength":144,
			"byteOffset":32256,
			"target":34962
		},
		{
			"buffer":0,
			"byteLength":96,
			"byteOffset":32400,
			"target":34963
		}
	],
	"buffers":[
		{
			"byteLength":32496,
			"uri":"monkey.bin"
		}
	]
}
