{
	"asset":{
		"generator":"Khronos glTF Blender I/O v4.0.44",
		"version":"2.0"
	},
	"scene":0,
	"scenes":[
		{
			"name":"Scene",
			"nodes":[
				0
			]
		}
	],
	"nodes":[
		{
			"mesh":0,
			"name":"Cube.001"
		}
	],
	"materials":[
		{
			"doubleSided":true,
			"name":"Material.001",
			"pbrMetallicRoughness":{
				"baseColorFactor":[
					0.8001892566680908,
					0.03068346157670021,
					0.05540400370955467,
					1
				],
				"metallicFactor":0,
				"roughnessFactor":0.5
			}
		},
		{
			"doubleSided":true,
			"name":"Material.002",
			"pbrMetallicRoughness":{
				"baseColorFactor":[
					0.02726922556757927,
					0.800315260887146,
					0,
					1
				],
				"metallicFactor":0,
				"roughnessFactor":0.5
			}
		},
		{
			"doubleSided":true,
			"name":"Material.003",
			"pbrMetallicRoughness":{
				"baseColorFactor":[
					0,
					0.4976930022239685,
					0.8005527257919312,
					1
				],
				"metallicFactor":0,
				"roughnessFactor":0.5
			}
		}
	],
	"meshes":[
		{
			"name":"Cube.001",
			"primitives":[
				{
					"attributes":{
						"POSITION":0,
						"NORMAL":1,
						"TEXCOORD_0":2
					},
					"indices":3,
					"material":0
				},
				{
					"attributes":{
						"POSITION":4,
						"NORMAL":5,
						"TEXCOORD_0":6
					},
					"indices":7,
					"material":1
				},
				{
					"attributes":{
						"POSITION":8,
						"NORMAL":9,
						"TEXCOORD_0":10
					},
					"indices":11,
					"material":2
				}
			]
		}
	],
	"accessors":[
		{
			"bufferView":0,
			"componentType":5126,
			"count":88,
			"max":[
				0.8018068671226501,
				0.8018068671226501,
				0.6705164909362793
			],
			"min":[
				-0.8018068671226501,
				-0.8018068671226501,
				-0.6705164909362793
			],
			"type":"VEC3"
		},
		{
			"bufferView":1,
			"componentType":5126,
			"count":88,
			"type":"VEC3"
		},
		{
			"bufferView":2,
			"componentType":5126,
			"count":88,
			"type":"VEC2"
		},
		{
			"bufferView":3,
			"componentType":5123,
			"count":120,
			"type":"SCALAR"
		},
		{
			"bufferView":4,
			"componentType":5126,
			"count":4,
			"max":[
				0.2910899221897125,
				0.7910898923873901,
				0.6705164909362793
			],
			"min":[
				-0.7910898327827454,
				-0.2910899221897125,
				0.03659025579690933
			],
			"type":"VEC3"
		},
		{
			"bufferView":5,
			"componentType":5126,
			"count":4,
			"type":"VEC3"
		},
		{
			"bufferView":6,
			"componentType":5126,
			"count":4,
			"type":"VEC2"
		},
		{
			"bufferView":7,
			"componentType":5123,
			"count":6,
			"type":"SCALAR"
		},
		{
			"bufferView":8,
			"componentType":5126,
			"count":4,
			"max":[
				0.7910898923873901,
				0.2910899221897125,
				-0.03659025579690933
			],
			"min":[
				-0.2910899221897125,
				-0.7910898327827454,
				-0.6705164909362793
			],
			"type":"VEC3"
		},
		{
			"bufferView":9,
			"componentType":5126,
			"count":4,
			"type":"VEC3"
		},
		{
			"bufferView":10,
			"componentType":5126,
			"count":4,
			"type":"VEC2"
		},
		{
			"bufferView":11,
			"componentType":5123,
			"count":6,
			"type":"SCALAR"
		}
	],
	"bufferViews":[
		{
			"buffer":0,
			"byteLength":1056,
			"byteOffset":0,
			"target":34962
		},
		{
			"buffer":0,
			"byteLength":1056,
			"byteOffset":1056,
			"target":34962
		},
		{
			"buffer":0,
			"byteLength":704,
			"byteOffset":2112,
			"target":34962
		},
		{
			"buffer":0,
			"byteLength":240,
			"byteOffset":2816,
			"target":34963
		},
		{
			"buffer":0,
			"byteLength":48,
			"byteOffset":3056,
			"target":34962
		},
		{
			"buffer":0,
			"byteLength":48,
			"byteOffset":3104,
			"target":34962
		},
		{
			"buffer":0,
			"byteLength":32,
			"byteOffset":3152,
			"target":34962
		},
		{
			"buffer":0,
			"byteLength":12,
			"byteOffset":3184,
			"target":34963
		},
		{
			"buffer":0,
			"byteLength":48,
			"byteOffset":3196,
			"target":34962
		},
		{
			"buffer":0,
			"byteLength":48,
			"byteOffset":3244,
			"target":34962
		},
		{
			"buffer":0,
			"byteLength":32,
			"byteOffset":3292,
			"target":34962
		},
		{
			"buffer":0,
			"byteLength":12,
			"byteOffset":3324,
			"target":34963
		}
	],
	"buffers":[
		{
			"byteLength":3336,
			"uri":"test3.bin"
		}
	]
}
