{
	"asset":{
		"generator":"Khronos glTF Blender I/O v4.0.44",
		"version":"2.0"
	},
	"scene":0,
	"scenes":[
		{
			"name":"Scene",
			"nodes":[
				0,
				1,
				2,
				3,
				4,
				9
			]
		}
	],
	"nodes":[
		{
			"mesh":0,
			"name":"island",
			"scale":[
				0.6085832715034485,
				0.6085832715034485,
				0.6085832715034485
			],
			"translation":[
				0.5911969542503357,
				-0.5102459192276001,
				0.0037376880645751953
			]
		},
		{
			"mesh":1,
			"name":"t1",
			"scale":[
				0.6085832715034485,
				0.6085832715034485,
				0.6085832715034485
			],
			"translation":[
				0.6302422285079956,
				-0.5438029766082764,
				0.013584941625595093
			]
		},
		{
			"mesh":1,
			"name":"t3",
			"rotation":[
				-0.027469240128993988,
				0.38824915885925293,
				0.025711126625537872,
				0.9207860827445984
			],
			"scale":[
				0.6591109037399292,
				0.6591109037399292,
				0.6591108441352844
			],
			"translation":[
				0.9705573320388794,
				-0.5907154083251953,
				0.22283127903938293
			]
		},
		{
			"mesh":1,
			"name":"t2",
			"rotation":[
				0.14167217910289764,
				0.0993277058005333,
				0.16634854674339294,
				0.9707683324813843
			],
			"scale":[
				0.5309547781944275,
				0.5309547185897827,
				0.5309548377990723
			],
			"translation":[
				0.7505101561546326,
				-0.20815801620483398,
				0.14123374223709106
			]
		},
		{
			"mesh":2,
			"name":"mill",
			"scale":[
				0.2807823419570923,
				0.2807823419570923,
				0.2807823419570923
			],
			"translation":[
				0.5911969542503357,
				0.2989422082901001,
				0.0037376880645751953
			]
		},
		{
			"mesh":3,
			"name":"b1",
			"scale":[
				0.013580470345914364,
				0.407414048910141,
				0.135804682970047
			],
			"translation":[
				0.16341841220855713,
				-0.4910769462585449,
				0.15825867652893066
			]
		},
		{
			"mesh":3,
			"name":"b2",
			"rotation":[
				1,
				0,
				0,
				2.821299744937278e-07
			],
			"scale":[
				0.013580470345914364,
				0.407414048910141,
				0.135804682970047
			],
			"translation":[
				0.16341841220855713,
				0.4698913097381592,
				-0.14182066917419434
			]
		},
		{
			"mesh":3,
			"name":"b3",
			"rotation":[
				-0.7071068286895752,
				0,
				0,
				0.7071068286895752
			],
			"scale":[
				0.013580470345914364,
				0.407414048910141,
				0.135804682970047
			],
			"translation":[
				0.16341841220855713,
				0.15016412734985352,
				0.48513084650039673
			]
		},
		{
			"mesh":3,
			"name":"b4",
			"rotation":[
				0.7071064710617065,
				0,
				0,
				0.7071071863174438
			],
			"scale":[
				0.013580470345914364,
				0.407414048910141,
				0.135804682970047
			],
			"translation":[
				0.16341841220855713,
				-0.14991533756256104,
				-0.47583770751953125
			]
		},
		{
			"children":[
				5,
				6,
				7,
				8
			],
			"mesh":4,
			"name":"axle",
			"scale":[
				0.2807823419570923,
				0.2807823419570923,
				0.2807823419570923
			],
			"translation":[
				0.40789279341697693,
				0.5943700075149536,
				-0.3686990439891815
			]
		}
	],
	"animations":[
		{
			"channels":[
				{
					"sampler":0,
					"target":{
						"node":9,
						"path":"translation"
					}
				},
				{
					"sampler":1,
					"target":{
						"node":9,
						"path":"rotation"
					}
				},
				{
					"sampler":2,
					"target":{
						"node":9,
						"path":"scale"
					}
				}
			],
			"name":"axleAction",
			"samplers":[
				{
					"input":40,
					"interpolation":"STEP",
					"output":41
				},
				{
					"input":42,
					"interpolation":"LINEAR",
					"output":43
				},
				{
					"input":40,
					"interpolation":"STEP",
					"output":44
				}
			]
		}
	],
	"materials":[
		{
			"doubleSided":true,
			"name":"Material",
			"pbrMetallicRoughness":{
				"baseColorFactor":[
					0.0005784473032690585,
					0.800133466720581,
					0,
					1
				],
				"metallicFactor":0,
				"roughnessFactor":0.5
			}
		},
		{
			"doubleSided":true,
			"name":"Material.001",
			"pbrMetallicRoughness":{
				"baseColorFactor":[
					0.24119329452514648,
					0.11789305508136749,
					0.08024682849645615,
					1
				],
				"metallicFactor":0,
				"roughnessFactor":0.5
			}
		},
		{
			"doubleSided":true,
			"name":"Material.002",
			"pbrMetallicRoughness":{
				"baseColorFactor":[
					0.04023238271474838,
					0.016899097710847855,
					0.007285331841558218,
					1
				],
				"metallicFactor":0,
				"roughnessFactor":0.5
			}
		},
		{
			"doubleSided":true,
			"name":"Material.003",
			"pbrMetallicRoughness":{
				"baseColorFactor":[
					0.8003076910972595,
					0.5931491851806641,
					0.4204834997653961,
					1
				],
				"metallicFactor":0,
				"roughnessFactor":0.5
			}
		},
		{
			"doubleSided":true,
			"name":"Material.004",
			"pbrMetallicRoughness":{
				"baseColorFactor":[
					0,
					0,
					0,
					1
				],
				"metallicFactor":0,
				"roughnessFactor":0.5
			}
		},
		{
			"doubleSided":true,
			"name":"Material.005",
			"pbrMetallicRoughness":{
				"baseColorFactor":[
					0.02091881074011326,
					0.03474566340446472,
					0.2247009575366974,
					1
				],
				"metallicFactor":0,
				"roughnessFactor":0.5
			}
		},
		{
			"doubleSided":true,
			"name":"Material.006",
			"pbrMetallicRoughness":{
				"baseColorFactor":[
					0.5986006259918213,
					0.6581496000289917,
					0.800133466720581,
					1
				],
				"metallicFactor":0,
				"roughnessFactor":0.5
			}
		},
		{
			"doubleSided":true,
			"name":"Material.007",
			"pbrMetallicRoughness":{
				"baseColorFactor":[
					0.8002997636795044,
					0.044351425021886826,
					0.07425215095281601,
					1
				],
				"metallicFactor":0,
				"roughnessFactor":0.5
			}
		}
	],
	"meshes":[
		{
			"name":"Cube",
			"primitives":[
				{
					"attributes":{
						"POSITION":0,
						"NORMAL":1,
						"TEXCOORD_0":2
					},
					"indices":3,
					"material":0
				},
				{
					"attributes":{
						"POSITION":4,
						"NORMAL":5,
						"TEXCOORD_0":6
					},
					"indices":7,
					"material":1
				}
			]
		},
		{
			"name":"Cube.001",
			"primitives":[
				{
					"attributes":{
						"POSITION":8,
						"NORMAL":9,
						"TEXCOORD_0":10
					},
					"indices":11,
					"material":0
				},
				{
					"attributes":{
						"POSITION":12,
						"NORMAL":13,
						"TEXCOORD_0":14
					},
					"indices":15,
					"material":2
				}
			]
		},
		{
			"name":"Circle",
			"primitives":[
				{
					"attributes":{
						"POSITION":16,
						"NORMAL":17,
						"TEXCOORD_0":18
					},
					"indices":19,
					"material":3
				},
				{
					"attributes":{
						"POSITION":20,
						"NORMAL":21,
						"TEXCOORD_0":22
					},
					"indices":23,
					"material":4
				},
				{
					"attributes":{
						"POSITION":24,
						"NORMAL":25,
						"TEXCOORD_0":26
					},
					"indices":27,
					"material":5
				}
			]
		},
		{
			"name":"Cube.002",
			"primitives":[
				{
					"attributes":{
						"POSITION":28,
						"NORMAL":29,
						"TEXCOORD_0":30
					},
					"indices":31,
					"material":6
				},
				{
					"attributes":{
						"POSITION":32,
						"NORMAL":33,
						"TEXCOORD_0":34
					},
					"indices":35,
					"material":7
				}
			]
		},
		{
			"name":"Circle.001",
			"primitives":[
				{
					"attributes":{
						"POSITION":36,
						"NORMAL":37,
						"TEXCOORD_0":38
					},
					"indices":39,
					"material":3
				}
			]
		}
	],
	"accessors":[
		{
			"bufferView":0,
			"componentType":5126,
			"count":95,
			"max":[
				1.416232943534851,
				1.29359769821167,
				1.4163624048233032
			],
			"min":[
				-1.4164917469024658,
				1,
				-1.4163624048233032
			],
			"type":"VEC3"
		},
		{
			"bufferView":1,
			"componentType":5126,
			"count":95,
			"type":"VEC3"
		},
		{
			"bufferView":2,
			"componentType":5126,
			"count":95,
			"type":"VEC2"
		},
		{
			"bufferView":3,
			"componentType":5123,
			"count":228,
			"type":"SCALAR"
		},
		{
			"bufferView":4,
			"componentType":5126,
			"count":148,
			"max":[
				1.416232943534851,
				1.29359769821167,
				1.4163624048233032
			],
			"min":[
				-1.4164917469024658,
				-1,
				-1.4163624048233032
			],
			"type":"VEC3"
		},
		{
			"bufferView":5,
			"componentType":5126,
			"count":148,
			"type":"VEC3"
		},
		{
			"bufferView":6,
			"componentType":5126,
			"count":148,
			"type":"VEC2"
		},
		{
			"bufferView":7,
			"componentType":5123,
			"count":258,
			"type":"SCALAR"
		},
		{
			"bufferView":8,
			"componentType":5126,
			"count":170,
			"max":[
				-0.490921288728714,
				1.5501857995986938,
				0.2932085394859314
			],
			"min":[
				-0.7401089072227478,
				1.3499674797058105,
				0.004917558748275042
			],
			"type":"VEC3"
		},
		{
			"bufferView":9,
			"componentType":5126,
			"count":170,
			"type":"VEC3"
		},
		{
			"bufferView":10,
			"componentType":5126,
			"count":170,
			"type":"VEC2"
		},
		{
			"bufferView":11,
			"componentType":5123,
			"count":180,
			"type":"SCALAR"
		},
		{
			"bufferView":12,
			"componentType":5126,
			"count":104,
			"max":[
				-0.6199327707290649,
				1.4606446027755737,
				0.36368757486343384
			],
			"min":[
				-0.881709098815918,
				1.022012710571289,
				0.17152626812458038
			],
			"type":"VEC3"
		},
		{
			"bufferView":13,
			"componentType":5126,
			"count":104,
			"type":"VEC3"
		},
		{
			"bufferView":14,
			"componentType":5126,
			"count":104,
			"type":"VEC2"
		},
		{
			"bufferView":15,
			"componentType":5123,
			"count":114,
			"type":"SCALAR"
		},
		{
			"bufferView":16,
			"componentType":5126,
			"count":96,
			"max":[
				-0.5337516665458679,
				1.5586578845977783,
				-0.7011285424232483
			],
			"min":[
				-1.783393144607544,
				-0.05664055049419403,
				-1.9507699012756348
			],
			"type":"VEC3"
		},
		{
			"bufferView":17,
			"componentType":5126,
			"count":96,
			"type":"VEC3"
		},
		{
			"bufferView":18,
			"componentType":5126,
			"count":96,
			"type":"VEC2"
		},
		{
			"bufferView":19,
			"componentType":5123,
			"count":318,
			"type":"SCALAR"
		},
		{
			"bufferView":20,
			"componentType":5126,
			"count":28,
			"max":[
				-0.5337516665458679,
				0.5838401913642883,
				-1.0868406295776367
			],
			"min":[
				-0.8729236721992493,
				-0.05664055049419403,
				-1.3559153079986572
			],
			"type":"VEC3"
		},
		{
			"bufferView":21,
			"componentType":5126,
			"count":28,
			"type":"VEC3"
		},
		{
			"bufferView":22,
			"componentType":5126,
			"count":28,
			"type":"VEC2"
		},
		{
			"bufferView":23,
			"componentType":5123,
			"count":48,
			"type":"SCALAR"
		},
		{
			"bufferView":24,
			"componentType":5126,
			"count":96,
			"max":[
				-0.7443863749504089,
				2.2617475986480713,
				-0.9117633700370789
			],
			"min":[
				-1.5727581977844238,
				1.4001131057739258,
				-1.7401351928710938
			],
			"type":"VEC3"
		},
		{
			"bufferView":25,
			"componentType":5126,
			"count":96,
			"type":"VEC3"
		},
		{
			"bufferView":26,
			"componentType":5126,
			"count":96,
			"type":"VEC2"
		},
		{
			"bufferView":27,
			"componentType":5123,
			"count":330,
			"type":"SCALAR"
		},
		{
			"bufferView":28,
			"componentType":5126,
			"count":32,
			"max":[
				1.2475581169128418,
				1,
				1.3417344093322754
			],
			"min":[
				-1,
				-1.4991487264633179,
				-1.542346477508545
			],
			"type":"VEC3"
		},
		{
			"bufferView":29,
			"componentType":5126,
			"count":32,
			"type":"VEC3"
		},
		{
			"bufferView":30,
			"componentType":5126,
			"count":32,
			"type":"VEC2"
		},
		{
			"bufferView":31,
			"componentType":5123,
			"count":54,
			"type":"SCALAR"
		},
		{
			"bufferView":32,
			"componentType":5126,
			"count":86,
			"max":[
				1.0000004768371582,
				1.1918269395828247,
				1.531840205192566
			],
			"min":[
				-1,
				-1.569656491279602,
				-1.776048183441162
			],
			"type":"VEC3"
		},
		{
			"bufferView":33,
			"componentType":5126,
			"count":86,
			"type":"VEC3"
		},
		{
			"bufferView":34,
			"componentType":5126,
			"count":86,
			"type":"VEC2"
		},
		{
			"bufferView":35,
			"componentType":5123,
			"count":174,
			"type":"SCALAR"
		},
		{
			"bufferView":36,
			"componentType":5126,
			"count":24,
			"max":[
				0.1538812220096588,
				0.03157460689544678,
				0.028689265251159668
			],
			"min":[
				-0.15392321348190308,
				-0.03064107894897461,
				-0.03225231170654297
			],
			"type":"VEC3"
		},
		{
			"bufferView":37,
			"componentType":5126,
			"count":24,
			"type":"VEC3"
		},
		{
			"bufferView":38,
			"componentType":5126,
			"count":24,
			"type":"VEC2"
		},
		{
			"bufferView":39,
			"componentType":5123,
			"count":36,
			"type":"SCALAR"
		},
		{
			"bufferView":40,
			"componentType":5126,
			"count":2,
			"max":[
				1
			],
			"min":[
				0.041666666666666664
			],
			"type":"SCALAR"
		},
		{
			"bufferView":41,
			"componentType":5126,
			"count":2,
			"type":"VEC3"
		},
		{
			"bufferView":42,
			"componentType":5126,
			"count":24,
			"max":[
				1
			],
			"min":[
				0.041666666666666664
			],
			"type":"SCALAR"
		},
		{
			"bufferView":43,
			"componentType":5126,
			"count":24,
			"type":"VEC4"
		},
		{
			"bufferView":44,
			"componentType":5126,
			"count":2,
			"type":"VEC3"
		}
	],
	"bufferViews":[
		{
			"buffer":0,
			"byteLength":1140,
			"byteOffset":0,
			"target":34962
		},
		{
			"buffer":0,
			"byteLength":1140,
			"byteOffset":1140,
			"target":34962
		},
		{
			"buffer":0,
			"byteLength":760,
			"byteOffset":2280,
			"target":34962
		},
		{
			"buffer":0,
			"byteLength":456,
			"byteOffset":3040,
			"target":34963
		},
		{
			"buffer":0,
			"byteLength":1776,
			"byteOffset":3496,
			"target":34962
		},
		{
			"buffer":0,
			"byteLength":1776,
			"byteOffset":5272,
			"target":34962
		},
		{
			"buffer":0,
			"byteLength":1184,
			"byteOffset":7048,
			"target":34962
		},
		{
			"buffer":0,
			"byteLength":516,
			"byteOffset":8232,
			"target":34963
		},
		{
			"buffer":0,
			"byteLength":2040,
			"byteOffset":8748,
			"target":34962
		},
		{
			"buffer":0,
			"byteLength":2040,
			"byteOffset":10788,
			"target":34962
		},
		{
			"buffer":0,
			"byteLength":1360,
			"byteOffset":12828,
			"target":34962
		},
		{
			"buffer":0,
			"byteLength":360,
			"byteOffset":14188,
			"target":34963
		},
		{
			"buffer":0,
			"byteLength":1248,
			"byteOffset":14548,
			"target":34962
		},
		{
			"buffer":0,
			"byteLength":1248,
			"byteOffset":15796,
			"target":34962
		},
		{
			"buffer":0,
			"byteLength":832,
			"byteOffset":17044,
			"target":34962
		},
		{
			"buffer":0,
			"byteLength":228,
			"byteOffset":17876,
			"target":34963
		},
		{
			"buffer":0,
			"byteLength":1152,
			"byteOffset":18104,
			"target":34962
		},
		{
			"buffer":0,
			"byteLength":1152,
			"byteOffset":19256,
			"target":34962
		},
		{
			"buffer":0,
			"byteLength":768,
			"byteOffset":20408,
			"target":34962
		},
		{
			"buffer":0,
			"byteLength":636,
			"byteOffset":21176,
			"target":34963
		},
		{
			"buffer":0,
			"byteLength":336,
			"byteOffset":21812,
			"target":34962
		},
		{
			"buffer":0,
			"byteLength":336,
			"byteOffset":22148,
			"target":34962
		},
		{
			"buffer":0,
			"byteLength":224,
			"byteOffset":22484,
			"target":34962
		},
		{
			"buffer":0,
			"byteLength":96,
			"byteOffset":22708,
			"target":34963
		},
		{
			"buffer":0,
			"byteLength":1152,
			"byteOffset":22804,
			"target":34962
		},
		{
			"buffer":0,
			"byteLength":1152,
			"byteOffset":23956,
			"target":34962
		},
		{
			"buffer":0,
			"byteLength":768,
			"byteOffset":25108,
			"target":34962
		},
		{
			"buffer":0,
			"byteLength":660,
			"byteOffset":25876,
			"target":34963
		},
		{
			"buffer":0,
			"byteLength":384,
			"byteOffset":26536,
			"target":34962
		},
		{
			"buffer":0,
			"byteLength":384,
			"byteOffset":26920,
			"target":34962
		},
		{
			"buffer":0,
			"byteLength":256,
			"byteOffset":27304,
			"target":34962
		},
		{
			"buffer":0,
			"byteLength":108,
			"byteOffset":27560,
			"target":34963
		},
		{
			"buffer":0,
			"byteLength":1032,
			"byteOffset":27668,
			"target":34962
		},
		{
			"buffer":0,
			"byteLength":1032,
			"byteOffset":28700,
			"target":34962
		},
		{
			"buffer":0,
			"byteLength":688,
			"byteOffset":29732,
			"target":34962
		},
		{
			"buffer":0,
			"byteLength":348,
			"byteOffset":30420,
			"target":34963
		},
		{
			"buffer":0,
			"byteLength":288,
			"byteOffset":30768,
			"target":34962
		},
		{
			"buffer":0,
			"byteLength":288,
			"byteOffset":31056,
			"target":34962
		},
		{
			"buffer":0,
			"byteLength":192,
			"byteOffset":31344,
			"target":34962
		},
		{
			"buffer":0,
			"byteLength":72,
			"byteOffset":31536,
			"target":34963
		},
		{
			"buffer":0,
			"byteLength":8,
			"byteOffset":31608
		},
		{
			"buffer":0,
			"byteLength":24,
			"byteOffset":31616
		},
		{
			"buffer":0,
			"byteLength":96,
			"byteOffset":31640
		},
		{
			"buffer":0,
			"byteLength":384,
			"byteOffset":31736
		},
		{
			"buffer":0,
			"byteLength":24,
			"byteOffset":32120
		}
	],
	"buffers":[
		{
			"byteLength":32144,
			"uri":"windmill.bin"
		}
	]
}
