{
	"asset":{
		"generator":"Khronos glTF Blender I/O v4.0.44",
		"version":"2.0"
	},
	"extensionsUsed":[
		"KHR_materials_specular",
		"KHR_materials_ior"
	],
	"scene":0,
	"scenes":[
		{
			"name":"Scene",
			"nodes":[
				0,
				1,
				2,
				3,
				4
			]
		}
	],
	"nodes":[
		{
			"mesh":0,
			"name":"body",
			"rotation":[
				-0.0028674101922661066,
				-0.7071007490158081,
				0.7071011662483215,
				0.0028681932017207146
			],
			"scale":[
				0.009999998845160007,
				0.009999999776482582,
				0.009999999776482582
			],
			"translation":[
				-1.7513848543167114,
				0.48537757992744446,
				-1.0069410800933838
			]
		},
		{
			"mesh":1,
			"name":"fr",
			"scale":[
				0.009999999776482582,
				0.009999999776482582,
				0.009999999776482582
			],
			"translation":[
				-1.7631129026412964,
				0.4854571521282196,
				-0.8809255361557007
			]
		},
		{
			"mesh":1,
			"name":"br",
			"scale":[
				0.009999999776482582,
				0.009999999776482582,
				0.009999999776482582
			],
			"translation":[
				1.5301645994186401,
				0.4854571521282196,
				-0.8809255361557007
			]
		},
		{
			"mesh":1,
			"name":"bl",
			"rotation":[
				0,
				-1,
				0,
				4.371138828673793e-08
			],
			"scale":[
				0.009999999776482582,
				0.009999999776482582,
				0.009999999776482582
			],
			"translation":[
				1.5301645994186401,
				0.4854571521282196,
				0.8809300065040588
			]
		},
		{
			"mesh":1,
			"name":"fl",
			"rotation":[
				0,
				-1,
				0,
				4.371138828673793e-08
			],
			"scale":[
				0.009999999776482582,
				0.009999999776482582,
				0.009999999776482582
			],
			"translation":[
				-1.7631129026412964,
				0.4854571521282196,
				0.8809300065040588
			]
		}
	],
	"materials":[
		{
			"doubleSided":true,
			"emissiveFactor":[
				1,
				1,
				1
			],
			"extensions":{
				"KHR_materials_specular":{
					"specularFactor":0
				},
				"KHR_materials_ior":{
					"ior":1.4500000476837158
				}
			},
			"name":"02 - Default",
			"pbrMetallicRoughness":{
				"baseColorFactor":[
					0,
					0,
					0,
					1
				],
				"roughnessFactor":0.8964735269546509
			}
		},
		{
			"doubleSided":true,
			"emissiveFactor":[
				0.14901961386203766,
				0.14901961386203766,
				0.14901961386203766
			],
			"extensions":{
				"KHR_materials_specular":{
					"specularFactor":0
				},
				"KHR_materials_ior":{
					"ior":1.4500000476837158
				}
			},
			"name":"Material #0",
			"pbrMetallicRoughness":{
				"baseColorFactor":[
					0,
					0,
					0,
					1
				],
				"roughnessFactor":0.858578622341156
			}
		},
		{
			"doubleSided":true,
			"emissiveFactor":[
				0.7450980544090271,
				0.23137255012989044,
				0.23137255012989044
			],
			"extensions":{
				"KHR_materials_specular":{
					"specularFactor":0
				},
				"KHR_materials_ior":{
					"ior":1.4500000476837158
				}
			},
			"name":"Material #1",
			"pbrMetallicRoughness":{
				"baseColorFactor":[
					0,
					0,
					0,
					1
				],
				"roughnessFactor":0.858578622341156
			}
		},
		{
			"doubleSided":true,
			"emissiveFactor":[
				0.9921568632125854,
				0.46666666865348816,
				0
			],
			"extensions":{
				"KHR_materials_specular":{
					"specularFactor":0
				},
				"KHR_materials_ior":{
					"ior":1.4500000476837158
				}
			},
			"name":"Material #2",
			"pbrMetallicRoughness":{
				"baseColorFactor":[
					0,
					0,
					0,
					1
				],
				"roughnessFactor":0.858578622341156
			}
		},
		{
			"doubleSided":true,
			"emissiveFactor":[
				0.32549020648002625,
				0.3686274588108063,
				0.47843137383461
			],
			"extensions":{
				"KHR_materials_specular":{
					"specularFactor":0
				},
				"KHR_materials_ior":{
					"ior":1.4500000476837158
				}
			},
			"name":"Material #3",
			"pbrMetallicRoughness":{
				"baseColorFactor":[
					0,
					0,
					0,
					1
				],
				"roughnessFactor":0.858578622341156
			}
		},
		{
			"doubleSided":true,
			"emissiveFactor":[
				0.4431372582912445,
				0.47843137383461,
				0.5686274766921997
			],
			"extensions":{
				"KHR_materials_specular":{
					"specularFactor":0
				},
				"KHR_materials_ior":{
					"ior":1.4500000476837158
				}
			},
			"name":"Material #4",
			"pbrMetallicRoughness":{
				"baseColorFactor":[
					0,
					0,
					0,
					1
				],
				"roughnessFactor":0.858578622341156
			}
		},
		{
			"doubleSided":true,
			"emissiveFactor":[
				0.5803921818733215,
				0.6274510025978088,
				0.7450980544090271
			],
			"extensions":{
				"KHR_materials_specular":{
					"specularFactor":0
				},
				"KHR_materials_ior":{
					"ior":1.4500000476837158
				}
			},
			"name":"Material #5",
			"pbrMetallicRoughness":{
				"baseColorFactor":[
					0,
					0,
					0,
					1
				],
				"roughnessFactor":0.858578622341156
			}
		},
		{
			"doubleSided":true,
			"emissiveFactor":[
				0.10196078568696976,
				0.125490203499794,
				0.11764705926179886
			],
			"extensions":{
				"KHR_materials_specular":{
					"specularFactor":0
				},
				"KHR_materials_ior":{
					"ior":1.4500000476837158
				}
			},
			"name":"Material #6",
			"pbrMetallicRoughness":{
				"baseColorFactor":[
					0,
					0,
					0,
					1
				],
				"roughnessFactor":0.858578622341156
			}
		},
		{
			"doubleSided":true,
			"emissiveFactor":[
				0.05882352963089943,
				0.05882352963089943,
				0.05098039284348488
			],
			"extensions":{
				"KHR_materials_specular":{
					"specularFactor":0
				},
				"KHR_materials_ior":{
					"ior":1.4500000476837158
				}
			},
			"name":"Material #7",
			"pbrMetallicRoughness":{
				"baseColorFactor":[
					0,
					0,
					0,
					1
				],
				"roughnessFactor":0.858578622341156
			}
		},
		{
			"doubleSided":true,
			"emissiveFactor":[
				0.43529412150382996,
				0.43529412150382996,
				0.46666666865348816
			],
			"extensions":{
				"KHR_materials_specular":{
					"specularFactor":0
				},
				"KHR_materials_ior":{
					"ior":1.4500000476837158
				}
			},
			"name":"Material #8",
			"pbrMetallicRoughness":{
				"baseColorFactor":[
					0,
					0,
					0,
					1
				],
				"roughnessFactor":0.858578622341156
			}
		},
		{
			"doubleSided":true,
			"emissiveFactor":[
				0.7960784435272217,
				0.7960784435272217,
				0.7960784435272217
			],
			"extensions":{
				"KHR_materials_specular":{
					"specularFactor":0
				},
				"KHR_materials_ior":{
					"ior":1.4500000476837158
				}
			},
			"name":"Material #9",
			"pbrMetallicRoughness":{
				"baseColorFactor":[
					0,
					0,
					0,
					1
				],
				"roughnessFactor":0.858578622341156
			}
		},
		{
			"doubleSided":true,
			"emissiveFactor":[
				1,
				0.9254902005195618,
				0.800000011920929
			],
			"extensions":{
				"KHR_materials_specular":{
					"specularFactor":0
				},
				"KHR_materials_ior":{
					"ior":1.4500000476837158
				}
			},
			"name":"Material #14",
			"pbrMetallicRoughness":{
				"baseColorFactor":[
					0,
					0,
					0,
					1
				],
				"roughnessFactor":0.858578622341156
			}
		},
		{
			"doubleSided":true,
			"emissiveFactor":[
				0.11372549086809158,
				0.11372549086809158,
				0.11372549086809158
			],
			"extensions":{
				"KHR_materials_specular":{
					"specularFactor":0
				},
				"KHR_materials_ior":{
					"ior":1.4500000476837158
				}
			},
			"name":"Material #17",
			"pbrMetallicRoughness":{
				"baseColorFactor":[
					0,
					0,
					0,
					1
				],
				"roughnessFactor":0.858578622341156
			}
		}
	],
	"meshes":[
		{
			"name":"Mesh",
			"primitives":[
				{
					"attributes":{
						"POSITION":0,
						"NORMAL":1,
						"TEXCOORD_0":2
					},
					"indices":3,
					"material":0
				},
				{
					"attributes":{
						"POSITION":4,
						"NORMAL":5,
						"TEXCOORD_0":6
					},
					"indices":7,
					"material":1
				},
				{
					"attributes":{
						"POSITION":8,
						"NORMAL":9,
						"TEXCOORD_0":10
					},
					"indices":11,
					"material":2
				},
				{
					"attributes":{
						"POSITION":12,
						"NORMAL":13,
						"TEXCOORD_0":14
					},
					"indices":15,
					"material":3
				},
				{
					"attributes":{
						"POSITION":16,
						"NORMAL":17,
						"TEXCOORD_0":18
					},
					"indices":19,
					"material":4
				},
				{
					"attributes":{
						"POSITION":20,
						"NORMAL":21,
						"TEXCOORD_0":22
					},
					"indices":23,
					"material":5
				},
				{
					"attributes":{
						"POSITION":24,
						"NORMAL":25,
						"TEXCOORD_0":26
					},
					"indices":27,
					"material":6
				},
				{
					"attributes":{
						"POSITION":28,
						"NORMAL":29,
						"TEXCOORD_0":30
					},
					"indices":31,
					"material":7
				},
				{
					"attributes":{
						"POSITION":32,
						"NORMAL":33,
						"TEXCOORD_0":34
					},
					"indices":35,
					"material":8
				},
				{
					"attributes":{
						"POSITION":36,
						"NORMAL":37,
						"TEXCOORD_0":38
					},
					"indices":39,
					"material":9
				},
				{
					"attributes":{
						"POSITION":40,
						"NORMAL":41,
						"TEXCOORD_0":42
					},
					"indices":43,
					"material":10
				},
				{
					"attributes":{
						"POSITION":44,
						"NORMAL":45,
						"TEXCOORD_0":46
					},
					"indices":47,
					"material":11
				},
				{
					"attributes":{
						"POSITION":48,
						"NORMAL":49,
						"TEXCOORD_0":50
					},
					"indices":51,
					"material":12
				}
			]
		},
		{
			"name":"Mesh.005",
			"primitives":[
				{
					"attributes":{
						"POSITION":52,
						"NORMAL":53,
						"TEXCOORD_0":54
					},
					"indices":55,
					"material":7
				},
				{
					"attributes":{
						"POSITION":56,
						"NORMAL":57,
						"TEXCOORD_0":58
					},
					"indices":59,
					"material":8
				},
				{
					"attributes":{
						"POSITION":60,
						"NORMAL":61,
						"TEXCOORD_0":62
					},
					"indices":63,
					"material":9
				},
				{
					"attributes":{
						"POSITION":64,
						"NORMAL":65,
						"TEXCOORD_0":66
					},
					"indices":67,
					"material":10
				}
			]
		}
	],
	"accessors":[
		{
			"bufferView":0,
			"componentType":5126,
			"count":1104,
			"max":[
				111.82928466796875,
				19.074371337890625,
				15.246813774108887
			],
			"min":[
				-461.3038024902344,
				-220.46307373046875,
				-126.12980651855469
			],
			"type":"VEC3"
		},
		{
			"bufferView":1,
			"componentType":5126,
			"count":1104,
			"type":"VEC3"
		},
		{
			"bufferView":2,
			"componentType":5126,
			"count":1104,
			"type":"VEC2"
		},
		{
			"bufferView":3,
			"componentType":5123,
			"count":2448,
			"type":"SCALAR"
		},
		{
			"bufferView":4,
			"componentType":5126,
			"count":46,
			"max":[
				76.48782348632812,
				-15.370771408081055,
				-39.913482666015625
			],
			"min":[
				74.20518493652344,
				-186.01776123046875,
				-54.304466247558594
			],
			"type":"VEC3"
		},
		{
			"bufferView":5,
			"componentType":5126,
			"count":46,
			"type":"VEC3"
		},
		{
			"bufferView":6,
			"componentType":5126,
			"count":46,
			"type":"VEC2"
		},
		{
			"bufferView":7,
			"componentType":5123,
			"count":48,
			"type":"SCALAR"
		},
		{
			"bufferView":8,
			"componentType":5126,
			"count":237,
			"max":[
				-402.57427978515625,
				13.394973754882812,
				-21.209625244140625
			],
			"min":[
				-454.7265625,
				-214.78457641601562,
				-67.79682159423828
			],
			"type":"VEC3"
		},
		{
			"bufferView":9,
			"componentType":5126,
			"count":237,
			"type":"VEC3"
		},
		{
			"bufferView":10,
			"componentType":5126,
			"count":237,
			"type":"VEC2"
		},
		{
			"bufferView":11,
			"componentType":5123,
			"count":348,
			"type":"SCALAR"
		},
		{
			"bufferView":12,
			"componentType":5126,
			"count":40,
			"max":[
				-71.5509262084961,
				18.563201904296875,
				-39.4453239440918
			],
			"min":[
				-81.94597625732422,
				-219.95208740234375,
				-44.73311233520508
			],
			"type":"VEC3"
		},
		{
			"bufferView":13,
			"componentType":5126,
			"count":40,
			"type":"VEC3"
		},
		{
			"bufferView":14,
			"componentType":5126,
			"count":40,
			"type":"VEC2"
		},
		{
			"bufferView":15,
			"componentType":5123,
			"count":60,
			"type":"SCALAR"
		},
		{
			"bufferView":16,
			"componentType":5126,
			"count":68,
			"max":[
				-63.469024658203125,
				13.7435302734375,
				-65.35034942626953
			],
			"min":[
				-395.59393310546875,
				-215.1326141357422,
				-119.63191223144531
			],
			"type":"VEC3"
		},
		{
			"bufferView":17,
			"componentType":5126,
			"count":68,
			"type":"VEC3"
		},
		{
			"bufferView":18,
			"componentType":5126,
			"count":68,
			"type":"VEC2"
		},
		{
			"bufferView":19,
			"componentType":5123,
			"count":150,
			"type":"SCALAR"
		},
		{
			"bufferView":20,
			"componentType":5126,
			"count":26,
			"max":[
				-67.68307495117188,
				13.7435302734375,
				-69.84910583496094
			],
			"min":[
				-391.18341064453125,
				-215.1326141357422,
				-119.63191223144531
			],
			"type":"VEC3"
		},
		{
			"bufferView":21,
			"componentType":5126,
			"count":26,
			"type":"VEC3"
		},
		{
			"bufferView":22,
			"componentType":5126,
			"count":26,
			"type":"VEC2"
		},
		{
			"bufferView":23,
			"componentType":5123,
			"count":42,
			"type":"SCALAR"
		},
		{
			"bufferView":24,
			"componentType":5126,
			"count":18,
			"max":[
				-77.89757537841797,
				13.7435302734375,
				-69.50564575195312
			],
			"min":[
				-378.03515625,
				-215.1326141357422,
				-119.57673645019531
			],
			"type":"VEC3"
		},
		{
			"bufferView":25,
			"componentType":5126,
			"count":18,
			"type":"VEC3"
		},
		{
			"bufferView":26,
			"componentType":5126,
			"count":18,
			"type":"VEC2"
		},
		{
			"bufferView":27,
			"componentType":5123,
			"count":30,
			"type":"SCALAR"
		},
		{
			"bufferView":28,
			"componentType":5126,
			"count":1572,
			"max":[
				103.25750732421875,
				17.348663330078125,
				25.808948516845703
			],
			"min":[
				-457.9656677246094,
				-218.41143798828125,
				-121.06922912597656
			],
			"type":"VEC3"
		},
		{
			"bufferView":29,
			"componentType":5126,
			"count":1572,
			"type":"VEC3"
		},
		{
			"bufferView":30,
			"componentType":5126,
			"count":1572,
			"type":"VEC2"
		},
		{
			"bufferView":31,
			"componentType":5123,
			"count":3270,
			"type":"SCALAR"
		},
		{
			"bufferView":32,
			"componentType":5126,
			"count":357,
			"max":[
				101.76995849609375,
				19.074371337890625,
				17.59950065612793
			],
			"min":[
				-449.2453308105469,
				-220.46307373046875,
				-73.01805114746094
			],
			"type":"VEC3"
		},
		{
			"bufferView":33,
			"componentType":5126,
			"count":357,
			"type":"VEC3"
		},
		{
			"bufferView":34,
			"componentType":5126,
			"count":357,
			"type":"VEC2"
		},
		{
			"bufferView":35,
			"componentType":5123,
			"count":828,
			"type":"SCALAR"
		},
		{
			"bufferView":36,
			"componentType":5126,
			"count":272,
			"max":[
				111.82928466796875,
				17.258689880371094,
				18.453773498535156
			],
			"min":[
				-461.3038024902344,
				-218.64752197265625,
				-96.65534973144531
			],
			"type":"VEC3"
		},
		{
			"bufferView":37,
			"componentType":5126,
			"count":272,
			"type":"VEC3"
		},
		{
			"bufferView":38,
			"componentType":5126,
			"count":272,
			"type":"VEC2"
		},
		{
			"bufferView":39,
			"componentType":5123,
			"count":576,
			"type":"SCALAR"
		},
		{
			"bufferView":40,
			"componentType":5126,
			"count":486,
			"max":[
				108.639404296875,
				18.469444274902344,
				17.59950065612793
			],
			"min":[
				-461.3038024902344,
				-219.85824584960938,
				-96.77861022949219
			],
			"type":"VEC3"
		},
		{
			"bufferView":41,
			"componentType":5126,
			"count":486,
			"type":"VEC3"
		},
		{
			"bufferView":42,
			"componentType":5126,
			"count":486,
			"type":"VEC2"
		},
		{
			"bufferView":43,
			"componentType":5123,
			"count":1128,
			"type":"SCALAR"
		},
		{
			"bufferView":44,
			"componentType":5126,
			"count":8,
			"max":[
				75.84815216064453,
				-17.174606323242188,
				-41.93236541748047
			],
			"min":[
				74.51183319091797,
				-184.2139434814453,
				-52.62913131713867
			],
			"type":"VEC3"
		},
		{
			"bufferView":45,
			"componentType":5126,
			"count":8,
			"type":"VEC3"
		},
		{
			"bufferView":46,
			"componentType":5126,
			"count":8,
			"type":"VEC2"
		},
		{
			"bufferView":47,
			"componentType":5123,
			"count":12,
			"type":"SCALAR"
		},
		{
			"bufferView":48,
			"componentType":5126,
			"count":30,
			"max":[
				-413.8806457519531,
				4.6434783935546875,
				-49.7252082824707
			],
			"min":[
				-447.4567565917969,
				-206.0331268310547,
				-74.57901000976562
			],
			"type":"VEC3"
		},
		{
			"bufferView":49,
			"componentType":5126,
			"count":30,
			"type":"VEC3"
		},
		{
			"bufferView":50,
			"componentType":5126,
			"count":30,
			"type":"VEC2"
		},
		{
			"bufferView":51,
			"componentType":5123,
			"count":78,
			"type":"SCALAR"
		},
		{
			"bufferView":52,
			"componentType":5126,
			"count":150,
			"max":[
				29.08150863647461,
				27.45690155029297,
				11.760591506958008
			],
			"min":[
				-28.75853729248047,
				-30.382450103759766,
				-24.15350341796875
			],
			"type":"VEC3"
		},
		{
			"bufferView":53,
			"componentType":5126,
			"count":150,
			"type":"VEC3"
		},
		{
			"bufferView":54,
			"componentType":5126,
			"count":150,
			"type":"VEC2"
		},
		{
			"bufferView":55,
			"componentType":5123,
			"count":372,
			"type":"SCALAR"
		},
		{
			"bufferView":56,
			"componentType":5126,
			"count":253,
			"max":[
				45.16056823730469,
				43.70604705810547,
				6.3962812423706055
			],
			"min":[
				-44.87310791015625,
				-46.46128845214844,
				-35.0112190246582
			],
			"type":"VEC3"
		},
		{
			"bufferView":57,
			"componentType":5126,
			"count":253,
			"type":"VEC3"
		},
		{
			"bufferView":58,
			"componentType":5126,
			"count":253,
			"type":"VEC2"
		},
		{
			"bufferView":59,
			"componentType":5123,
			"count":720,
			"type":"SCALAR"
		},
		{
			"bufferView":60,
			"componentType":5126,
			"count":180,
			"max":[
				27.71467399597168,
				26.287145614624023,
				-23.879039764404297
			],
			"min":[
				-27.45559310913086,
				-28.90642738342285,
				-30.108530044555664
			],
			"type":"VEC3"
		},
		{
			"bufferView":61,
			"componentType":5126,
			"count":180,
			"type":"VEC3"
		},
		{
			"bufferView":62,
			"componentType":5126,
			"count":180,
			"type":"VEC2"
		},
		{
			"bufferView":63,
			"componentType":5123,
			"count":270,
			"type":"SCALAR"
		},
		{
			"bufferView":64,
			"componentType":5126,
			"count":184,
			"max":[
				31.29376792907715,
				29.872507095336914,
				-23.879039764404297
			],
			"min":[
				-31.040987014770508,
				-32.461463928222656,
				-30.127079010009766
			],
			"type":"VEC3"
		},
		{
			"bufferView":65,
			"componentType":5126,
			"count":184,
			"type":"VEC3"
		},
		{
			"bufferView":66,
			"componentType":5126,
			"count":184,
			"type":"VEC2"
		},
		{
			"bufferView":67,
			"componentType":5123,
			"count":408,
			"type":"SCALAR"
		}
	],
	"bufferViews":[
		{
			"buffer":0,
			"byteLength":13248,
			"byteOffset":0,
			"target":34962
		},
		{
			"buffer":0,
			"byteLength":13248,
			"byteOffset":13248,
			"target":34962
		},
		{
			"buffer":0,
			"byteLength":8832,
			"byteOffset":26496,
			"target":34962
		},
		{
			"buffer":0,
			"byteLength":4896,
			"byteOffset":35328,
			"target":34963
		},
		{
			"buffer":0,
			"byteLength":552,
			"byteOffset":40224,
			"target":34962
		},
		{
			"buffer":0,
			"byteLength":552,
			"byteOffset":40776,
			"target":34962
		},
		{
			"buffer":0,
			"byteLength":368,
			"byteOffset":41328,
			"target":34962
		},
		{
			"buffer":0,
			"byteLength":96,
			"byteOffset":41696,
			"target":34963
		},
		{
			"buffer":0,
			"byteLength":2844,
			"byteOffset":41792,
			"target":34962
		},
		{
			"buffer":0,
			"byteLength":2844,
			"byteOffset":44636,
			"target":34962
		},
		{
			"buffer":0,
			"byteLength":1896,
			"byteOffset":47480,
			"target":34962
		},
		{
			"buffer":0,
			"byteLength":696,
			"byteOffset":49376,
			"target":34963
		},
		{
			"buffer":0,
			"byteLength":480,
			"byteOffset":50072,
			"target":34962
		},
		{
			"buffer":0,
			"byteLength":480,
			"byteOffset":50552,
			"target":34962
		},
		{
			"buffer":0,
			"byteLength":320,
			"byteOffset":51032,
			"target":34962
		},
		{
			"buffer":0,
			"byteLength":120,
			"byteOffset":51352,
			"target":34963
		},
		{
			"buffer":0,
			"byteLength":816,
			"byteOffset":51472,
			"target":34962
		},
		{
			"buffer":0,
			"byteLength":816,
			"byteOffset":52288,
			"target":34962
		},
		{
			"buffer":0,
			"byteLength":544,
			"byteOffset":53104,
			"target":34962
		},
		{
			"buffer":0,
			"byteLength":300,
			"byteOffset":53648,
			"target":34963
		},
		{
			"buffer":0,
			"byteLength":312,
			"byteOffset":53948,
			"target":34962
		},
		{
			"buffer":0,
			"byteLength":312,
			"byteOffset":54260,
			"target":34962
		},
		{
			"buffer":0,
			"byteLength":208,
			"byteOffset":54572,
			"target":34962
		},
		{
			"buffer":0,
			"byteLength":84,
			"byteOffset":54780,
			"target":34963
		},
		{
			"buffer":0,
			"byteLength":216,
			"byteOffset":54864,
			"target":34962
		},
		{
			"buffer":0,
			"byteLength":216,
			"byteOffset":55080,
			"target":34962
		},
		{
			"buffer":0,
			"byteLength":144,
			"byteOffset":55296,
			"target":34962
		},
		{
			"buffer":0,
			"byteLength":60,
			"byteOffset":55440,
			"target":34963
		},
		{
			"buffer":0,
			"byteLength":18864,
			"byteOffset":55500,
			"target":34962
		},
		{
			"buffer":0,
			"byteLength":18864,
			"byteOffset":74364,
			"target":34962
		},
		{
			"buffer":0,
			"byteLength":12576,
			"byteOffset":93228,
			"target":34962
		},
		{
			"buffer":0,
			"byteLength":6540,
			"byteOffset":105804,
			"target":34963
		},
		{
			"buffer":0,
			"byteLength":4284,
			"byteOffset":112344,
			"target":34962
		},
		{
			"buffer":0,
			"byteLength":4284,
			"byteOffset":116628,
			"target":34962
		},
		{
			"buffer":0,
			"byteLength":2856,
			"byteOffset":120912,
			"target":34962
		},
		{
			"buffer":0,
			"byteLength":1656,
			"byteOffset":123768,
			"target":34963
		},
		{
			"buffer":0,
			"byteLength":3264,
			"byteOffset":125424,
			"target":34962
		},
		{
			"buffer":0,
			"byteLength":3264,
			"byteOffset":128688,
			"target":34962
		},
		{
			"buffer":0,
			"byteLength":2176,
			"byteOffset":131952,
			"target":34962
		},
		{
			"buffer":0,
			"byteLength":1152,
			"byteOffset":134128,
			"target":34963
		},
		{
			"buffer":0,
			"byteLength":5832,
			"byteOffset":135280,
			"target":34962
		},
		{
			"buffer":0,
			"byteLength":5832,
			"byteOffset":141112,
			"target":34962
		},
		{
			"buffer":0,
			"byteLength":3888,
			"byteOffset":146944,
			"target":34962
		},
		{
			"buffer":0,
			"byteLength":2256,
			"byteOffset":150832,
			"target":34963
		},
		{
			"buffer":0,
			"byteLength":96,
			"byteOffset":153088,
			"target":34962
		},
		{
			"buffer":0,
			"byteLength":96,
			"byteOffset":153184,
			"target":34962
		},
		{
			"buffer":0,
			"byteLength":64,
			"byteOffset":153280,
			"target":34962
		},
		{
			"buffer":0,
			"byteLength":24,
			"byteOffset":153344,
			"target":34963
		},
		{
			"buffer":0,
			"byteLength":360,
			"byteOffset":153368,
			"target":34962
		},
		{
			"buffer":0,
			"byteLength":360,
			"byteOffset":153728,
			"target":34962
		},
		{
			"buffer":0,
			"byteLength":240,
			"byteOffset":154088,
			"target":34962
		},
		{
			"buffer":0,
			"byteLength":156,
			"byteOffset":154328,
			"target":34963
		},
		{
			"buffer":0,
			"byteLength":1800,
			"byteOffset":154484,
			"target":34962
		},
		{
			"buffer":0,
			"byteLength":1800,
			"byteOffset":156284,
			"target":34962
		},
		{
			"buffer":0,
			"byteLength":1200,
			"byteOffset":158084,
			"target":34962
		},
		{
			"buffer":0,
			"byteLength":744,
			"byteOffset":159284,
			"target":34963
		},
		{
			"buffer":0,
			"byteLength":3036,
			"byteOffset":160028,
			"target":34962
		},
		{
			"buffer":0,
			"byteLength":3036,
			"byteOffset":163064,
			"target":34962
		},
		{
			"buffer":0,
			"byteLength":2024,
			"byteOffset":166100,
			"target":34962
		},
		{
			"buffer":0,
			"byteLength":1440,
			"byteOffset":168124,
			"target":34963
		},
		{
			"buffer":0,
			"byteLength":2160,
			"byteOffset":169564,
			"target":34962
		},
		{
			"buffer":0,
			"byteLength":2160,
			"byteOffset":171724,
			"target":34962
		},
		{
			"buffer":0,
			"byteLength":1440,
			"byteOffset":173884,
			"target":34962
		},
		{
			"buffer":0,
			"byteLength":540,
			"byteOffset":175324,
			"target":34963
		},
		{
			"buffer":0,
			"byteLength":2208,
			"byteOffset":175864,
			"target":34962
		},
		{
			"buffer":0,
			"byteLength":2208,
			"byteOffset":178072,
			"target":34962
		},
		{
			"buffer":0,
			"byteLength":1472,
			"byteOffset":180280,
			"target":34962
		},
		{
			"buffer":0,
			"byteLength":816,
			"byteOffset":181752,
			"target":34963
		}
	],
	"buffers":[
		{
			"byteLength":182568,
			"uri":"untitled.bin"
		}
	]
}
