{
	"asset":{
		"generator":"Khronos glTF Blender I/O v4.0.44",
		"version":"2.0"
	},
	"scene":0,
	"scenes":[
		{
			"name":"Scene",
			"nodes":[
				0,
				1,
				2,
				3,
				4,
				5,
				6,
				7,
				8,
				9,
				10,
				11,
				12,
				13,
				14,
				15,
				16,
				17,
				18,
				19,
				20,
				21,
				22,
				23,
				24,
				25,
				26,
				27,
				28,
				29,
				30,
				31,
				32,
				33,
				34,
				35,
				36,
				37,
				38,
				39,
				40,
				41,
				42,
				43,
				44,
				45,
				46,
				47,
				48,
				49,
				50,
				51,
				52,
				53,
				54,
				55,
				56,
				57,
				58,
				59,
				60,
				61,
				62,
				63
			]
		}
	],
	"nodes":[
		{
			"mesh":0,
			"name":"Cube",
			"scale":[
				0.10000002384185791,
				0.10000002384185791,
				0.10000002384185791
			],
			"translation":[
				-15,
				0,
				15
			]
		},
		{
			"mesh":0,
			"name":"Cube.001",
			"scale":[
				0.10000002384185791,
				0.10000002384185791,
				0.10000002384185791
			],
			"translation":[
				-5,
				0,
				15
			]
		},
		{
			"mesh":0,
			"name":"Cube.002",
			"scale":[
				0.10000002384185791,
				0.10000002384185791,
				0.10000002384185791
			],
			"translation":[
				-15,
				0,
				5
			]
		},
		{
			"mesh":0,
			"name":"Cube.003",
			"scale":[
				0.10000002384185791,
				0.10000002384185791,
				0.10000002384185791
			],
			"translation":[
				-5,
				0,
				5
			]
		},
		{
			"mesh":0,
			"name":"Cube.004",
			"scale":[
				0.10000002384185791,
				0.10000002384185791,
				0.10000002384185791
			],
			"translation":[
				-35,
				0,
				15
			]
		},
		{
			"mesh":0,
			"name":"Cube.005",
			"scale":[
				0.10000002384185791,
				0.10000002384185791,
				0.10000002384185791
			],
			"translation":[
				-25,
				0,
				15
			]
		},
		{
			"mesh":0,
			"name":"Cube.006",
			"scale":[
				0.10000002384185791,
				0.10000002384185791,
				0.10000002384185791
			],
			"translation":[
				-35,
				0,
				5
			]
		},
		{
			"mesh":0,
			"name":"Cube.007",
			"scale":[
				0.10000002384185791,
				0.10000002384185791,
				0.10000002384185791
			],
			"translation":[
				-25,
				0,
				5
			]
		},
		{
			"mesh":0,
			"name":"Cube.008",
			"scale":[
				0.10000002384185791,
				0.10000002384185791,
				0.10000002384185791
			],
			"translation":[
				-15,
				0,
				35
			]
		},
		{
			"mesh":0,
			"name":"Cube.009",
			"scale":[
				0.10000002384185791,
				0.10000002384185791,
				0.10000002384185791
			],
			"translation":[
				-5,
				0,
				35
			]
		},
		{
			"mesh":0,
			"name":"Cube.010",
			"scale":[
				0.10000002384185791,
				0.10000002384185791,
				0.10000002384185791
			],
			"translation":[
				-15,
				0,
				25
			]
		},
		{
			"mesh":0,
			"name":"Cube.011",
			"scale":[
				0.10000002384185791,
				0.10000002384185791,
				0.10000002384185791
			],
			"translation":[
				-5,
				0,
				25
			]
		},
		{
			"mesh":0,
			"name":"Cube.012",
			"scale":[
				0.10000002384185791,
				0.10000002384185791,
				0.10000002384185791
			],
			"translation":[
				-35,
				0,
				35
			]
		},
		{
			"mesh":0,
			"name":"Cube.013",
			"scale":[
				0.10000002384185791,
				0.10000002384185791,
				0.10000002384185791
			],
			"translation":[
				-25,
				0,
				35
			]
		},
		{
			"mesh":0,
			"name":"Cube.014",
			"scale":[
				0.10000002384185791,
				0.10000002384185791,
				0.10000002384185791
			],
			"translation":[
				-35,
				0,
				25
			]
		},
		{
			"mesh":0,
			"name":"Cube.015",
			"scale":[
				0.10000002384185791,
				0.10000002384185791,
				0.10000002384185791
			],
			"translation":[
				-25,
				0,
				25
			]
		},
		{
			"mesh":0,
			"name":"Cube.016",
			"scale":[
				0.10000002384185791,
				0.10000002384185791,
				0.10000002384185791
			],
			"translation":[
				25,
				0,
				15
			]
		},
		{
			"mesh":0,
			"name":"Cube.017",
			"scale":[
				0.10000002384185791,
				0.10000002384185791,
				0.10000002384185791
			],
			"translation":[
				35,
				0,
				15
			]
		},
		{
			"mesh":0,
			"name":"Cube.018",
			"scale":[
				0.10000002384185791,
				0.10000002384185791,
				0.10000002384185791
			],
			"translation":[
				25,
				0,
				5
			]
		},
		{
			"mesh":0,
			"name":"Cube.019",
			"scale":[
				0.10000002384185791,
				0.10000002384185791,
				0.10000002384185791
			],
			"translation":[
				35,
				0,
				5
			]
		},
		{
			"mesh":0,
			"name":"Cube.020",
			"scale":[
				0.10000002384185791,
				0.10000002384185791,
				0.10000002384185791
			],
			"translation":[
				5,
				0,
				15
			]
		},
		{
			"mesh":0,
			"name":"Cube.021",
			"scale":[
				0.10000002384185791,
				0.10000002384185791,
				0.10000002384185791
			],
			"translation":[
				15,
				0,
				15
			]
		},
		{
			"mesh":0,
			"name":"Cube.022",
			"scale":[
				0.10000002384185791,
				0.10000002384185791,
				0.10000002384185791
			],
			"translation":[
				5,
				0,
				5
			]
		},
		{
			"mesh":0,
			"name":"Cube.023",
			"scale":[
				0.10000002384185791,
				0.10000002384185791,
				0.10000002384185791
			],
			"translation":[
				15,
				0,
				5
			]
		},
		{
			"mesh":0,
			"name":"Cube.024",
			"scale":[
				0.10000002384185791,
				0.10000002384185791,
				0.10000002384185791
			],
			"translation":[
				25,
				0,
				35
			]
		},
		{
			"mesh":0,
			"name":"Cube.025",
			"scale":[
				0.10000002384185791,
				0.10000002384185791,
				0.10000002384185791
			],
			"translation":[
				35,
				0,
				35
			]
		},
		{
			"mesh":0,
			"name":"Cube.026",
			"scale":[
				0.10000002384185791,
				0.10000002384185791,
				0.10000002384185791
			],
			"translation":[
				25,
				0,
				25
			]
		},
		{
			"mesh":0,
			"name":"Cube.027",
			"scale":[
				0.10000002384185791,
				0.10000002384185791,
				0.10000002384185791
			],
			"translation":[
				35,
				0,
				25
			]
		},
		{
			"mesh":0,
			"name":"Cube.028",
			"scale":[
				0.10000002384185791,
				0.10000002384185791,
				0.10000002384185791
			],
			"translation":[
				5,
				0,
				35
			]
		},
		{
			"mesh":0,
			"name":"Cube.029",
			"scale":[
				0.10000002384185791,
				0.10000002384185791,
				0.10000002384185791
			],
			"translation":[
				15,
				0,
				35
			]
		},
		{
			"mesh":0,
			"name":"Cube.030",
			"scale":[
				0.10000002384185791,
				0.10000002384185791,
				0.10000002384185791
			],
			"translation":[
				5,
				0,
				25
			]
		},
		{
			"mesh":0,
			"name":"Cube.031",
			"scale":[
				0.10000002384185791,
				0.10000002384185791,
				0.10000002384185791
			],
			"translation":[
				15,
				0,
				25
			]
		},
		{
			"mesh":0,
			"name":"Cube.032",
			"scale":[
				0.10000002384185791,
				0.10000002384185791,
				0.10000002384185791
			],
			"translation":[
				25,
				0,
				-25
			]
		},
		{
			"mesh":0,
			"name":"Cube.033",
			"scale":[
				0.10000002384185791,
				0.10000002384185791,
				0.10000002384185791
			],
			"translation":[
				35,
				0,
				-25
			]
		},
		{
			"mesh":0,
			"name":"Cube.034",
			"scale":[
				0.10000002384185791,
				0.10000002384185791,
				0.10000002384185791
			],
			"translation":[
				25,
				0,
				-35
			]
		},
		{
			"mesh":0,
			"name":"Cube.035",
			"scale":[
				0.10000002384185791,
				0.10000002384185791,
				0.10000002384185791
			],
			"translation":[
				35,
				0,
				-35
			]
		},
		{
			"mesh":0,
			"name":"Cube.036",
			"scale":[
				0.10000002384185791,
				0.10000002384185791,
				0.10000002384185791
			],
			"translation":[
				5,
				0,
				-25
			]
		},
		{
			"mesh":0,
			"name":"Cube.037",
			"scale":[
				0.10000002384185791,
				0.10000002384185791,
				0.10000002384185791
			],
			"translation":[
				15,
				0,
				-25
			]
		},
		{
			"mesh":0,
			"name":"Cube.038",
			"scale":[
				0.10000002384185791,
				0.10000002384185791,
				0.10000002384185791
			],
			"translation":[
				5,
				0,
				-35
			]
		},
		{
			"mesh":0,
			"name":"Cube.039",
			"scale":[
				0.10000002384185791,
				0.10000002384185791,
				0.10000002384185791
			],
			"translation":[
				15,
				0,
				-35
			]
		},
		{
			"mesh":0,
			"name":"Cube.040",
			"scale":[
				0.10000002384185791,
				0.10000002384185791,
				0.10000002384185791
			],
			"translation":[
				25,
				0,
				-5
			]
		},
		{
			"mesh":0,
			"name":"Cube.041",
			"scale":[
				0.10000002384185791,
				0.10000002384185791,
				0.10000002384185791
			],
			"translation":[
				35,
				0,
				-5
			]
		},
		{
			"mesh":0,
			"name":"Cube.042",
			"scale":[
				0.10000002384185791,
				0.10000002384185791,
				0.10000002384185791
			],
			"translation":[
				25,
				0,
				-15
			]
		},
		{
			"mesh":0,
			"name":"Cube.043",
			"scale":[
				0.10000002384185791,
				0.10000002384185791,
				0.10000002384185791
			],
			"translation":[
				35,
				0,
				-15
			]
		},
		{
			"mesh":0,
			"name":"Cube.044",
			"scale":[
				0.10000002384185791,
				0.10000002384185791,
				0.10000002384185791
			],
			"translation":[
				5,
				0,
				-5
			]
		},
		{
			"mesh":0,
			"name":"Cube.045",
			"scale":[
				0.10000002384185791,
				0.10000002384185791,
				0.10000002384185791
			],
			"translation":[
				15,
				0,
				-5
			]
		},
		{
			"mesh":0,
			"name":"Cube.046",
			"scale":[
				0.10000002384185791,
				0.10000002384185791,
				0.10000002384185791
			],
			"translation":[
				5,
				0,
				-15
			]
		},
		{
			"mesh":0,
			"name":"Cube.047",
			"scale":[
				0.10000002384185791,
				0.10000002384185791,
				0.10000002384185791
			],
			"translation":[
				15,
				0,
				-15
			]
		},
		{
			"mesh":0,
			"name":"Cube.048",
			"scale":[
				0.10000002384185791,
				0.10000002384185791,
				0.10000002384185791
			],
			"translation":[
				-15,
				0,
				-25
			]
		},
		{
			"mesh":0,
			"name":"Cube.049",
			"scale":[
				0.10000002384185791,
				0.10000002384185791,
				0.10000002384185791
			],
			"translation":[
				-5,
				0,
				-25
			]
		},
		{
			"mesh":0,
			"name":"Cube.050",
			"scale":[
				0.10000002384185791,
				0.10000002384185791,
				0.10000002384185791
			],
			"translation":[
				-15,
				0,
				-35
			]
		},
		{
			"mesh":0,
			"name":"Cube.051",
			"scale":[
				0.10000002384185791,
				0.10000002384185791,
				0.10000002384185791
			],
			"translation":[
				-5,
				0,
				-35
			]
		},
		{
			"mesh":0,
			"name":"Cube.052",
			"scale":[
				0.10000002384185791,
				0.10000002384185791,
				0.10000002384185791
			],
			"translation":[
				-35,
				0,
				-25
			]
		},
		{
			"mesh":0,
			"name":"Cube.053",
			"scale":[
				0.10000002384185791,
				0.10000002384185791,
				0.10000002384185791
			],
			"translation":[
				-25,
				0,
				-25
			]
		},
		{
			"mesh":0,
			"name":"Cube.054",
			"scale":[
				0.10000002384185791,
				0.10000002384185791,
				0.10000002384185791
			],
			"translation":[
				-35,
				0,
				-35
			]
		},
		{
			"mesh":0,
			"name":"Cube.055",
			"scale":[
				0.10000002384185791,
				0.10000002384185791,
				0.10000002384185791
			],
			"translation":[
				-25,
				0,
				-35
			]
		},
		{
			"mesh":0,
			"name":"Cube.056",
			"scale":[
				0.10000002384185791,
				0.10000002384185791,
				0.10000002384185791
			],
			"translation":[
				-15,
				0,
				-5
			]
		},
		{
			"mesh":0,
			"name":"Cube.057",
			"scale":[
				0.10000002384185791,
				0.10000002384185791,
				0.10000002384185791
			],
			"translation":[
				-5,
				0,
				-5
			]
		},
		{
			"mesh":0,
			"name":"Cube.058",
			"scale":[
				0.10000002384185791,
				0.10000002384185791,
				0.10000002384185791
			],
			"translation":[
				-15,
				0,
				-15
			]
		},
		{
			"mesh":0,
			"name":"Cube.059",
			"scale":[
				0.10000002384185791,
				0.10000002384185791,
				0.10000002384185791
			],
			"translation":[
				-5,
				0,
				-15
			]
		},
		{
			"mesh":0,
			"name":"Cube.060",
			"scale":[
				0.10000002384185791,
				0.10000002384185791,
				0.10000002384185791
			],
			"translation":[
				-35,
				0,
				-5
			]
		},
		{
			"mesh":0,
			"name":"Cube.061",
			"scale":[
				0.10000002384185791,
				0.10000002384185791,
				0.10000002384185791
			],
			"translation":[
				-25,
				0,
				-5
			]
		},
		{
			"mesh":0,
			"name":"Cube.062",
			"scale":[
				0.10000002384185791,
				0.10000002384185791,
				0.10000002384185791
			],
			"translation":[
				-35,
				0,
				-15
			]
		},
		{
			"mesh":0,
			"name":"Cube.063",
			"scale":[
				0.10000002384185791,
				0.10000002384185791,
				0.10000002384185791
			],
			"translation":[
				-25,
				0,
				-15
			]
		}
	],
	"materials":[
		{
			"doubleSided":true,
			"name":"Material",
			"pbrMetallicRoughness":{
				"baseColorFactor":[
					1,
					0.2937568426132202,
					0,
					1
				],
				"metallicFactor":0,
				"roughnessFactor":0.5
			}
		},
		{
			"doubleSided":true,
			"name":"Material.001",
			"pbrMetallicRoughness":{
				"baseColorFactor":[
					0.8001565933227539,
					0.001228798064403236,
					0,
					1
				],
				"metallicFactor":0,
				"roughnessFactor":0.5
			}
		}
	],
	"meshes":[
		{
			"name":"Cube",
			"primitives":[
				{
					"attributes":{
						"POSITION":0,
						"NORMAL":1,
						"TEXCOORD_0":2
					},
					"indices":3,
					"material":0
				},
				{
					"attributes":{
						"POSITION":4,
						"NORMAL":5,
						"TEXCOORD_0":6
					},
					"indices":7,
					"material":1
				}
			]
		}
	],
	"accessors":[
		{
			"bufferView":0,
			"componentType":5126,
			"count":86,
			"max":[
				10,
				10,
				10
			],
			"min":[
				-10,
				-1,
				-10
			],
			"type":"VEC3"
		},
		{
			"bufferView":1,
			"componentType":5126,
			"count":86,
			"type":"VEC3"
		},
		{
			"bufferView":2,
			"componentType":5126,
			"count":86,
			"type":"VEC2"
		},
		{
			"bufferView":3,
			"componentType":5123,
			"count":150,
			"type":"SCALAR"
		},
		{
			"bufferView":4,
			"componentType":5126,
			"count":20,
			"max":[
				1,
				-1,
				1
			],
			"min":[
				-1,
				-10,
				-1
			],
			"type":"VEC3"
		},
		{
			"bufferView":5,
			"componentType":5126,
			"count":20,
			"type":"VEC3"
		},
		{
			"bufferView":6,
			"componentType":5126,
			"count":20,
			"type":"VEC2"
		},
		{
			"bufferView":7,
			"componentType":5123,
			"count":30,
			"type":"SCALAR"
		}
	],
	"bufferViews":[
		{
			"buffer":0,
			"byteLength":1032,
			"byteOffset":0,
			"target":34962
		},
		{
			"buffer":0,
			"byteLength":1032,
			"byteOffset":1032,
			"target":34962
		},
		{
			"buffer":0,
			"byteLength":688,
			"byteOffset":2064,
			"target":34962
		},
		{
			"buffer":0,
			"byteLength":300,
			"byteOffset":2752,
			"target":34963
		},
		{
			"buffer":0,
			"byteLength":240,
			"byteOffset":3052,
			"target":34962
		},
		{
			"buffer":0,
			"byteLength":240,
			"byteOffset":3292,
			"target":34962
		},
		{
			"buffer":0,
			"byteLength":160,
			"byteOffset":3532,
			"target":34962
		},
		{
			"buffer":0,
			"byteLength":60,
			"byteOffset":3692,
			"target":34963
		}
	],
	"buffers":[
		{
			"byteLength":3752,
			"uri":"debug.bin"
		}
	]
}
