{
	"asset":{
		"generator":"Khronos glTF Blender I/O v4.0.44",
		"version":"2.0"
	},
	"scene":0,
	"scenes":[
		{
			"name":"Scene",
			"nodes":[
				0
			]
		}
	],
	"nodes":[
		{
			"mesh":0,
			"name":"Plane",
			"scale":[
				6,
				6,
				6
			],
			"translation":[
				-7.113880157470703,
				-0.03503227233886719,
				-2.673029899597168
			]
		}
	],
	"materials":[
		{
			"doubleSided":true,
			"name":"ashphalt",
			"pbrMetallicRoughness":{
				"baseColorFactor":[
					0.0438934862613678,
					0.044864099472761154,
					0.05087519437074661,
					1
				],
				"metallicFactor":0,
				"roughnessFactor":0.5
			}
		},
		{
			"doubleSided":true,
			"name":"white",
			"pbrMetallicRoughness":{
				"baseColorFactor":[
					0.800000011920929,
					0.800000011920929,
					0.800000011920929,
					1
				],
				"metallicFactor":0,
				"roughnessFactor":0.5
			}
		},
		{
			"doubleSided":true,
			"name":"grass",
			"pbrMetallicRoughness":{
				"baseColorFactor":[
					0.019419316202402115,
					0.25271204113960266,
					0.0114415492862463,
					1
				],
				"metallicFactor":0,
				"roughnessFactor":0.5
			}
		},
		{
			"doubleSided":true,
			"name":"brick",
			"pbrMetallicRoughness":{
				"baseColorFactor":[
					0.3415611982345581,
					0.04883567988872528,
					0.012625929899513721,
					1
				],
				"metallicFactor":0,
				"roughnessFactor":0.5
			}
		},
		{
			"doubleSided":true,
			"name":"barrier",
			"pbrMetallicRoughness":{
				"baseColorFactor":[
					0.8002356290817261,
					0.6229158043861389,
					0.0017518531531095505,
					1
				],
				"metallicFactor":0,
				"roughnessFactor":0.5
			}
		}
	],
	"meshes":[
		{
			"name":"Plane",
			"primitives":[
				{
					"attributes":{
						"POSITION":0,
						"NORMAL":1,
						"TEXCOORD_0":2
					},
					"indices":3,
					"material":0
				},
				{
					"attributes":{
						"POSITION":4,
						"NORMAL":5,
						"TEXCOORD_0":6
					},
					"indices":7,
					"material":1
				},
				{
					"attributes":{
						"POSITION":8,
						"NORMAL":9,
						"TEXCOORD_0":10
					},
					"indices":11,
					"material":2
				},
				{
					"attributes":{
						"POSITION":12,
						"NORMAL":13,
						"TEXCOORD_0":14
					},
					"indices":15,
					"material":3
				},
				{
					"attributes":{
						"POSITION":16,
						"NORMAL":17,
						"TEXCOORD_0":18
					},
					"indices":19,
					"material":4
				}
			]
		}
	],
	"accessors":[
		{
			"bufferView":0,
			"componentType":5126,
			"count":229,
			"max":[
				13.805553436279297,
				2.725206136703491,
				37.20834732055664
			],
			"min":[
				-12.635668754577637,
				0,
				-7.533733367919922
			],
			"type":"VEC3"
		},
		{
			"bufferView":1,
			"componentType":5126,
			"count":229,
			"type":"VEC3"
		},
		{
			"bufferView":2,
			"componentType":5126,
			"count":229,
			"type":"VEC2"
		},
		{
			"bufferView":3,
			"componentType":5123,
			"count":579,
			"type":"SCALAR"
		},
		{
			"bufferView":4,
			"componentType":5126,
			"count":253,
			"max":[
				7,
				1.1785675287246704,
				26.534093856811523
			],
			"min":[
				-10.722813606262207,
				0,
				-1
			],
			"type":"VEC3"
		},
		{
			"bufferView":5,
			"componentType":5126,
			"count":253,
			"type":"VEC3"
		},
		{
			"bufferView":6,
			"componentType":5126,
			"count":253,
			"type":"VEC2"
		},
		{
			"bufferView":7,
			"componentType":5123,
			"count":531,
			"type":"SCALAR"
		},
		{
			"bufferView":8,
			"componentType":5126,
			"count":65,
			"max":[
				4.257496356964111,
				0.5749181509017944,
				28.897140502929688
			],
			"min":[
				-10.424601554870605,
				0,
				15.663394927978516
			],
			"type":"VEC3"
		},
		{
			"bufferView":9,
			"componentType":5126,
			"count":65,
			"type":"VEC3"
		},
		{
			"bufferView":10,
			"componentType":5126,
			"count":65,
			"type":"VEC2"
		},
		{
			"bufferView":11,
			"componentType":5123,
			"count":201,
			"type":"SCALAR"
		},
		{
			"bufferView":12,
			"componentType":5126,
			"count":106,
			"max":[
				13.805553436279297,
				2.725206136703491,
				25.723907470703125
			],
			"min":[
				-0.9666879773139954,
				-0.01730954647064209,
				-2.523005247116089
			],
			"type":"VEC3"
		},
		{
			"bufferView":13,
			"componentType":5126,
			"count":106,
			"type":"VEC3"
		},
		{
			"bufferView":14,
			"componentType":5126,
			"count":106,
			"type":"VEC2"
		},
		{
			"bufferView":15,
			"componentType":5123,
			"count":180,
			"type":"SCALAR"
		},
		{
			"bufferView":16,
			"componentType":5126,
			"count":60,
			"max":[
				11.27714729309082,
				0.5115318298339844,
				30.077804565429688
			],
			"min":[
				-3.024075984954834,
				0,
				1
			],
			"type":"VEC3"
		},
		{
			"bufferView":17,
			"componentType":5126,
			"count":60,
			"type":"VEC3"
		},
		{
			"bufferView":18,
			"componentType":5126,
			"count":60,
			"type":"VEC2"
		},
		{
			"bufferView":19,
			"componentType":5123,
			"count":90,
			"type":"SCALAR"
		}
	],
	"bufferViews":[
		{
			"buffer":0,
			"byteLength":2748,
			"byteOffset":0,
			"target":34962
		},
		{
			"buffer":0,
			"byteLength":2748,
			"byteOffset":2748,
			"target":34962
		},
		{
			"buffer":0,
			"byteLength":1832,
			"byteOffset":5496,
			"target":34962
		},
		{
			"buffer":0,
			"byteLength":1158,
			"byteOffset":7328,
			"target":34963
		},
		{
			"buffer":0,
			"byteLength":3036,
			"byteOffset":8488,
			"target":34962
		},
		{
			"buffer":0,
			"byteLength":3036,
			"byteOffset":11524,
			"target":34962
		},
		{
			"buffer":0,
			"byteLength":2024,
			"byteOffset":14560,
			"target":34962
		},
		{
			"buffer":0,
			"byteLength":1062,
			"byteOffset":16584,
			"target":34963
		},
		{
			"buffer":0,
			"byteLength":780,
			"byteOffset":17648,
			"target":34962
		},
		{
			"buffer":0,
			"byteLength":780,
			"byteOffset":18428,
			"target":34962
		},
		{
			"buffer":0,
			"byteLength":520,
			"byteOffset":19208,
			"target":34962
		},
		{
			"buffer":0,
			"byteLength":402,
			"byteOffset":19728,
			"target":34963
		},
		{
			"buffer":0,
			"byteLength":1272,
			"byteOffset":20132,
			"target":34962
		},
		{
			"buffer":0,
			"byteLength":1272,
			"byteOffset":21404,
			"target":34962
		},
		{
			"buffer":0,
			"byteLength":848,
			"byteOffset":22676,
			"target":34962
		},
		{
			"buffer":0,
			"byteLength":360,
			"byteOffset":23524,
			"target":34963
		},
		{
			"buffer":0,
			"byteLength":720,
			"byteOffset":23884,
			"target":34962
		},
		{
			"buffer":0,
			"byteLength":720,
			"byteOffset":24604,
			"target":34962
		},
		{
			"buffer":0,
			"byteLength":480,
			"byteOffset":25324,
			"target":34962
		},
		{
			"buffer":0,
			"byteLength":180,
			"byteOffset":25804,
			"target":34963
		}
	],
	"buffers":[
		{
			"byteLength":25984,
			"uri":"debug.bin"
		}
	]
}
