{
	"asset":{
		"generator":"Khronos glTF Blender I/O v4.0.44",
		"version":"2.0"
	},
	"scene":0,
	"scenes":[
		{
			"name":"Scene",
			"nodes":[
				0,
				1,
				2,
				3
			]
		}
	],
	"nodes":[
		{
			"name":"Plane"
		},
		{
			"mesh":0,
			"name":"Spedo",
			"scale":[
				0.2068731188774109,
				0.2068731188774109,
				0.2068731188774109
			],
			"translation":[
				1.1893527507781982,
				0,
				0.6459417343139648
			]
		},
		{
			"mesh":1,
			"name":"Needle",
			"scale":[
				0.2068731188774109,
				0.2068731188774109,
				0.2068731188774109
			],
			"translation":[
				1.1893527507781982,
				0.019999999552965164,
				0.6459417343139648
			]
		},
		{
			"mesh":2,
			"name":"Text",
			"scale":[
				0.11822424083948135,
				0.11822424083948135,
				0.11822424083948135
			],
			"translation":[
				-1.4006118774414062,
				0,
				-0.814734935760498
			]
		}
	],
	"materials":[
		{
			"doubleSided":true,
			"name":"Material.001",
			"pbrMetallicRoughness":{
				"baseColorFactor":[
					0.48463404178619385,
					0.9273371696472168,
					1,
					1
				],
				"metallicFactor":0,
				"roughnessFactor":0.5
			}
		},
		{
			"doubleSided":true,
			"name":"Material.002",
			"pbrMetallicRoughness":{
				"baseColorFactor":[
					0.800315260887146,
					0.04248179495334625,
					0,
					1
				],
				"metallicFactor":0,
				"roughnessFactor":0.5
			}
		},
		{
			"doubleSided":true,
			"name":"Material.003",
			"pbrMetallicRoughness":{
				"baseColorFactor":[
					1,
					0.6482174396514893,
					0.027148105204105377,
					1
				],
				"metallicFactor":0,
				"roughnessFactor":0.5
			}
		}
	],
	"meshes":[
		{
			"name":"Circle",
			"primitives":[
				{
					"attributes":{
						"POSITION":0,
						"NORMAL":1,
						"TEXCOORD_0":2
					},
					"indices":3,
					"material":0
				}
			]
		},
		{
			"name":"Circle.001",
			"primitives":[
				{
					"attributes":{
						"POSITION":4,
						"NORMAL":5,
						"TEXCOORD_0":6
					},
					"indices":7,
					"material":1
				}
			]
		},
		{
			"name":"Text",
			"primitives":[
				{
					"attributes":{
						"POSITION":8,
						"NORMAL":9,
						"TEXCOORD_0":10
					},
					"indices":11,
					"material":2
				}
			]
		}
	],
	"accessors":[
		{
			"bufferView":0,
			"componentType":5126,
			"count":58,
			"max":[
				1,
				0,
				0.7071067690849304
			],
			"min":[
				-1,
				0,
				-1
			],
			"type":"VEC3"
		},
		{
			"bufferView":1,
			"componentType":5126,
			"count":58,
			"type":"VEC3"
		},
		{
			"bufferView":2,
			"componentType":5126,
			"count":58,
			"type":"VEC2"
		},
		{
			"bufferView":3,
			"componentType":5123,
			"count":156,
			"type":"SCALAR"
		},
		{
			"bufferView":4,
			"componentType":5126,
			"count":24,
			"max":[
				0.11790477484464645,
				0,
				0.5803372263908386
			],
			"min":[
				-0.7011824250221252,
				0,
				-0.1190594732761383
			],
			"type":"VEC3"
		},
		{
			"bufferView":5,
			"componentType":5126,
			"count":24,
			"type":"VEC3"
		},
		{
			"bufferView":6,
			"componentType":5126,
			"count":24,
			"type":"VEC2"
		},
		{
			"bufferView":7,
			"componentType":5123,
			"count":78,
			"type":"SCALAR"
		},
		{
			"bufferView":8,
			"componentType":5126,
			"count":265,
			"max":[
				3.1317038536071777,
				0,
				0.006788866128772497
			],
			"min":[
				0.04887983575463295,
				0,
				-0.4847250282764435
			],
			"type":"VEC3"
		},
		{
			"bufferView":9,
			"componentType":5126,
			"count":265,
			"type":"VEC3"
		},
		{
			"bufferView":10,
			"componentType":5126,
			"count":265,
			"type":"VEC2"
		},
		{
			"bufferView":11,
			"componentType":5123,
			"count":783,
			"type":"SCALAR"
		}
	],
	"bufferViews":[
		{
			"buffer":0,
			"byteLength":696,
			"byteOffset":0,
			"target":34962
		},
		{
			"buffer":0,
			"byteLength":696,
			"byteOffset":696,
			"target":34962
		},
		{
			"buffer":0,
			"byteLength":464,
			"byteOffset":1392,
			"target":34962
		},
		{
			"buffer":0,
			"byteLength":312,
			"byteOffset":1856,
			"target":34963
		},
		{
			"buffer":0,
			"byteLength":288,
			"byteOffset":2168,
			"target":34962
		},
		{
			"buffer":0,
			"byteLength":288,
			"byteOffset":2456,
			"target":34962
		},
		{
			"buffer":0,
			"byteLength":192,
			"byteOffset":2744,
			"target":34962
		},
		{
			"buffer":0,
			"byteLength":156,
			"byteOffset":2936,
			"target":34963
		},
		{
			"buffer":0,
			"byteLength":3180,
			"byteOffset":3092,
			"target":34962
		},
		{
			"buffer":0,
			"byteLength":3180,
			"byteOffset":6272,
			"target":34962
		},
		{
			"buffer":0,
			"byteLength":2120,
			"byteOffset":9452,
			"target":34962
		},
		{
			"buffer":0,
			"byteLength":1566,
			"byteOffset":11572,
			"target":34963
		}
	],
	"buffers":[
		{
			"byteLength":13140,
			"uri":"hud.bin"
		}
	]
}
